%TF.GenerationSoftware,KiCad,Pcbnew,8.0.6*%
%TF.CreationDate,2025-04-14T23:16:26+09:00*%
%TF.ProjectId,PdSinkInspector,50645369-6e6b-4496-9e73-706563746f72,rev?*%
%TF.SameCoordinates,Original*%
%TF.FileFunction,Legend,Top*%
%TF.FilePolarity,Positive*%
%FSLAX46Y46*%
G04 Gerber Fmt 4.6, Leading zero omitted, Abs format (unit mm)*
G04 Created by KiCad (PCBNEW 8.0.6) date 2025-04-14 23:16:26*
%MOMM*%
%LPD*%
G01*
G04 APERTURE LIST*
%ADD10C,0.300000*%
%ADD11C,0.100000*%
%ADD12C,0.150000*%
%ADD13C,0.120000*%
%ADD14C,0.200000*%
%ADD15C,0.254000*%
G04 APERTURE END LIST*
D10*
X107983082Y-109837542D02*
X107983082Y-108637542D01*
X107983082Y-108637542D02*
X108268796Y-108637542D01*
X108268796Y-108637542D02*
X108440225Y-108694685D01*
X108440225Y-108694685D02*
X108554510Y-108808971D01*
X108554510Y-108808971D02*
X108611653Y-108923257D01*
X108611653Y-108923257D02*
X108668796Y-109151828D01*
X108668796Y-109151828D02*
X108668796Y-109323257D01*
X108668796Y-109323257D02*
X108611653Y-109551828D01*
X108611653Y-109551828D02*
X108554510Y-109666114D01*
X108554510Y-109666114D02*
X108440225Y-109780400D01*
X108440225Y-109780400D02*
X108268796Y-109837542D01*
X108268796Y-109837542D02*
X107983082Y-109837542D01*
X109640225Y-109780400D02*
X109525939Y-109837542D01*
X109525939Y-109837542D02*
X109297368Y-109837542D01*
X109297368Y-109837542D02*
X109183082Y-109780400D01*
X109183082Y-109780400D02*
X109125939Y-109666114D01*
X109125939Y-109666114D02*
X109125939Y-109208971D01*
X109125939Y-109208971D02*
X109183082Y-109094685D01*
X109183082Y-109094685D02*
X109297368Y-109037542D01*
X109297368Y-109037542D02*
X109525939Y-109037542D01*
X109525939Y-109037542D02*
X109640225Y-109094685D01*
X109640225Y-109094685D02*
X109697368Y-109208971D01*
X109697368Y-109208971D02*
X109697368Y-109323257D01*
X109697368Y-109323257D02*
X109125939Y-109437542D01*
X110154510Y-109780400D02*
X110268796Y-109837542D01*
X110268796Y-109837542D02*
X110497367Y-109837542D01*
X110497367Y-109837542D02*
X110611653Y-109780400D01*
X110611653Y-109780400D02*
X110668796Y-109666114D01*
X110668796Y-109666114D02*
X110668796Y-109608971D01*
X110668796Y-109608971D02*
X110611653Y-109494685D01*
X110611653Y-109494685D02*
X110497367Y-109437542D01*
X110497367Y-109437542D02*
X110325939Y-109437542D01*
X110325939Y-109437542D02*
X110211653Y-109380400D01*
X110211653Y-109380400D02*
X110154510Y-109266114D01*
X110154510Y-109266114D02*
X110154510Y-109208971D01*
X110154510Y-109208971D02*
X110211653Y-109094685D01*
X110211653Y-109094685D02*
X110325939Y-109037542D01*
X110325939Y-109037542D02*
X110497367Y-109037542D01*
X110497367Y-109037542D02*
X110611653Y-109094685D01*
X111183082Y-109837542D02*
X111183082Y-109037542D01*
X111183082Y-108637542D02*
X111125939Y-108694685D01*
X111125939Y-108694685D02*
X111183082Y-108751828D01*
X111183082Y-108751828D02*
X111240225Y-108694685D01*
X111240225Y-108694685D02*
X111183082Y-108637542D01*
X111183082Y-108637542D02*
X111183082Y-108751828D01*
X111754511Y-109037542D02*
X111754511Y-109837542D01*
X111754511Y-109151828D02*
X111811654Y-109094685D01*
X111811654Y-109094685D02*
X111925939Y-109037542D01*
X111925939Y-109037542D02*
X112097368Y-109037542D01*
X112097368Y-109037542D02*
X112211654Y-109094685D01*
X112211654Y-109094685D02*
X112268797Y-109208971D01*
X112268797Y-109208971D02*
X112268797Y-109837542D01*
X113354511Y-109037542D02*
X113354511Y-110008971D01*
X113354511Y-110008971D02*
X113297368Y-110123257D01*
X113297368Y-110123257D02*
X113240225Y-110180400D01*
X113240225Y-110180400D02*
X113125939Y-110237542D01*
X113125939Y-110237542D02*
X112954511Y-110237542D01*
X112954511Y-110237542D02*
X112840225Y-110180400D01*
X113354511Y-109780400D02*
X113240225Y-109837542D01*
X113240225Y-109837542D02*
X113011653Y-109837542D01*
X113011653Y-109837542D02*
X112897368Y-109780400D01*
X112897368Y-109780400D02*
X112840225Y-109723257D01*
X112840225Y-109723257D02*
X112783082Y-109608971D01*
X112783082Y-109608971D02*
X112783082Y-109266114D01*
X112783082Y-109266114D02*
X112840225Y-109151828D01*
X112840225Y-109151828D02*
X112897368Y-109094685D01*
X112897368Y-109094685D02*
X113011653Y-109037542D01*
X113011653Y-109037542D02*
X113240225Y-109037542D01*
X113240225Y-109037542D02*
X113354511Y-109094685D01*
X114383082Y-109780400D02*
X114268796Y-109837542D01*
X114268796Y-109837542D02*
X114040225Y-109837542D01*
X114040225Y-109837542D02*
X113925939Y-109780400D01*
X113925939Y-109780400D02*
X113868796Y-109666114D01*
X113868796Y-109666114D02*
X113868796Y-109208971D01*
X113868796Y-109208971D02*
X113925939Y-109094685D01*
X113925939Y-109094685D02*
X114040225Y-109037542D01*
X114040225Y-109037542D02*
X114268796Y-109037542D01*
X114268796Y-109037542D02*
X114383082Y-109094685D01*
X114383082Y-109094685D02*
X114440225Y-109208971D01*
X114440225Y-109208971D02*
X114440225Y-109323257D01*
X114440225Y-109323257D02*
X113868796Y-109437542D01*
X115468796Y-109837542D02*
X115468796Y-108637542D01*
X115468796Y-109780400D02*
X115354510Y-109837542D01*
X115354510Y-109837542D02*
X115125938Y-109837542D01*
X115125938Y-109837542D02*
X115011653Y-109780400D01*
X115011653Y-109780400D02*
X114954510Y-109723257D01*
X114954510Y-109723257D02*
X114897367Y-109608971D01*
X114897367Y-109608971D02*
X114897367Y-109266114D01*
X114897367Y-109266114D02*
X114954510Y-109151828D01*
X114954510Y-109151828D02*
X115011653Y-109094685D01*
X115011653Y-109094685D02*
X115125938Y-109037542D01*
X115125938Y-109037542D02*
X115354510Y-109037542D01*
X115354510Y-109037542D02*
X115468796Y-109094685D01*
X116954510Y-109837542D02*
X116954510Y-108637542D01*
X116954510Y-109094685D02*
X117068796Y-109037542D01*
X117068796Y-109037542D02*
X117297367Y-109037542D01*
X117297367Y-109037542D02*
X117411653Y-109094685D01*
X117411653Y-109094685D02*
X117468796Y-109151828D01*
X117468796Y-109151828D02*
X117525938Y-109266114D01*
X117525938Y-109266114D02*
X117525938Y-109608971D01*
X117525938Y-109608971D02*
X117468796Y-109723257D01*
X117468796Y-109723257D02*
X117411653Y-109780400D01*
X117411653Y-109780400D02*
X117297367Y-109837542D01*
X117297367Y-109837542D02*
X117068796Y-109837542D01*
X117068796Y-109837542D02*
X116954510Y-109780400D01*
X117925938Y-109037542D02*
X118211652Y-109837542D01*
X118497367Y-109037542D02*
X118211652Y-109837542D01*
X118211652Y-109837542D02*
X118097367Y-110123257D01*
X118097367Y-110123257D02*
X118040224Y-110180400D01*
X118040224Y-110180400D02*
X117925938Y-110237542D01*
X119697367Y-109037542D02*
X120154510Y-109037542D01*
X119868796Y-108637542D02*
X119868796Y-109666114D01*
X119868796Y-109666114D02*
X119925939Y-109780400D01*
X119925939Y-109780400D02*
X120040224Y-109837542D01*
X120040224Y-109837542D02*
X120154510Y-109837542D01*
X121011653Y-109780400D02*
X120897367Y-109837542D01*
X120897367Y-109837542D02*
X120668796Y-109837542D01*
X120668796Y-109837542D02*
X120554510Y-109780400D01*
X120554510Y-109780400D02*
X120497367Y-109666114D01*
X120497367Y-109666114D02*
X120497367Y-109208971D01*
X120497367Y-109208971D02*
X120554510Y-109094685D01*
X120554510Y-109094685D02*
X120668796Y-109037542D01*
X120668796Y-109037542D02*
X120897367Y-109037542D01*
X120897367Y-109037542D02*
X121011653Y-109094685D01*
X121011653Y-109094685D02*
X121068796Y-109208971D01*
X121068796Y-109208971D02*
X121068796Y-109323257D01*
X121068796Y-109323257D02*
X120497367Y-109437542D01*
X122097367Y-109837542D02*
X122097367Y-109208971D01*
X122097367Y-109208971D02*
X122040224Y-109094685D01*
X122040224Y-109094685D02*
X121925938Y-109037542D01*
X121925938Y-109037542D02*
X121697367Y-109037542D01*
X121697367Y-109037542D02*
X121583081Y-109094685D01*
X122097367Y-109780400D02*
X121983081Y-109837542D01*
X121983081Y-109837542D02*
X121697367Y-109837542D01*
X121697367Y-109837542D02*
X121583081Y-109780400D01*
X121583081Y-109780400D02*
X121525938Y-109666114D01*
X121525938Y-109666114D02*
X121525938Y-109551828D01*
X121525938Y-109551828D02*
X121583081Y-109437542D01*
X121583081Y-109437542D02*
X121697367Y-109380400D01*
X121697367Y-109380400D02*
X121983081Y-109380400D01*
X121983081Y-109380400D02*
X122097367Y-109323257D01*
X122840223Y-109837542D02*
X122725938Y-109780400D01*
X122725938Y-109780400D02*
X122668795Y-109666114D01*
X122668795Y-109666114D02*
X122668795Y-108637542D01*
X123868794Y-108637542D02*
X123297366Y-108637542D01*
X123297366Y-108637542D02*
X123240223Y-109208971D01*
X123240223Y-109208971D02*
X123297366Y-109151828D01*
X123297366Y-109151828D02*
X123411652Y-109094685D01*
X123411652Y-109094685D02*
X123697366Y-109094685D01*
X123697366Y-109094685D02*
X123811652Y-109151828D01*
X123811652Y-109151828D02*
X123868794Y-109208971D01*
X123868794Y-109208971D02*
X123925937Y-109323257D01*
X123925937Y-109323257D02*
X123925937Y-109608971D01*
X123925937Y-109608971D02*
X123868794Y-109723257D01*
X123868794Y-109723257D02*
X123811652Y-109780400D01*
X123811652Y-109780400D02*
X123697366Y-109837542D01*
X123697366Y-109837542D02*
X123411652Y-109837542D01*
X123411652Y-109837542D02*
X123297366Y-109780400D01*
X123297366Y-109780400D02*
X123240223Y-109723257D01*
X124383080Y-108751828D02*
X124440223Y-108694685D01*
X124440223Y-108694685D02*
X124554509Y-108637542D01*
X124554509Y-108637542D02*
X124840223Y-108637542D01*
X124840223Y-108637542D02*
X124954509Y-108694685D01*
X124954509Y-108694685D02*
X125011651Y-108751828D01*
X125011651Y-108751828D02*
X125068794Y-108866114D01*
X125068794Y-108866114D02*
X125068794Y-108980400D01*
X125068794Y-108980400D02*
X125011651Y-109151828D01*
X125011651Y-109151828D02*
X124325937Y-109837542D01*
X124325937Y-109837542D02*
X125068794Y-109837542D01*
D11*
X126000000Y-61750000D02*
X153000000Y-61750000D01*
X153000000Y-91250000D01*
X126000000Y-91250000D01*
X126000000Y-61750000D01*
D10*
X101054510Y-72970996D02*
X101054510Y-71470996D01*
X101054510Y-71470996D02*
X101625939Y-71470996D01*
X101625939Y-71470996D02*
X101768796Y-71542425D01*
X101768796Y-71542425D02*
X101840225Y-71613853D01*
X101840225Y-71613853D02*
X101911653Y-71756710D01*
X101911653Y-71756710D02*
X101911653Y-71970996D01*
X101911653Y-71970996D02*
X101840225Y-72113853D01*
X101840225Y-72113853D02*
X101768796Y-72185282D01*
X101768796Y-72185282D02*
X101625939Y-72256710D01*
X101625939Y-72256710D02*
X101054510Y-72256710D01*
X102554510Y-72970996D02*
X102554510Y-71470996D01*
X102554510Y-71470996D02*
X102911653Y-71470996D01*
X102911653Y-71470996D02*
X103125939Y-71542425D01*
X103125939Y-71542425D02*
X103268796Y-71685282D01*
X103268796Y-71685282D02*
X103340225Y-71828139D01*
X103340225Y-71828139D02*
X103411653Y-72113853D01*
X103411653Y-72113853D02*
X103411653Y-72328139D01*
X103411653Y-72328139D02*
X103340225Y-72613853D01*
X103340225Y-72613853D02*
X103268796Y-72756710D01*
X103268796Y-72756710D02*
X103125939Y-72899568D01*
X103125939Y-72899568D02*
X102911653Y-72970996D01*
X102911653Y-72970996D02*
X102554510Y-72970996D01*
X104483082Y-73542425D02*
X104411653Y-73470996D01*
X104411653Y-73470996D02*
X104268796Y-73256710D01*
X104268796Y-73256710D02*
X104197368Y-73113853D01*
X104197368Y-73113853D02*
X104125939Y-72899568D01*
X104125939Y-72899568D02*
X104054510Y-72542425D01*
X104054510Y-72542425D02*
X104054510Y-72256710D01*
X104054510Y-72256710D02*
X104125939Y-71899568D01*
X104125939Y-71899568D02*
X104197368Y-71685282D01*
X104197368Y-71685282D02*
X104268796Y-71542425D01*
X104268796Y-71542425D02*
X104411653Y-71328139D01*
X104411653Y-71328139D02*
X104483082Y-71256710D01*
X105054510Y-72970996D02*
X105054510Y-71470996D01*
X105054510Y-71470996D02*
X105625939Y-71470996D01*
X105625939Y-71470996D02*
X105768796Y-71542425D01*
X105768796Y-71542425D02*
X105840225Y-71613853D01*
X105840225Y-71613853D02*
X105911653Y-71756710D01*
X105911653Y-71756710D02*
X105911653Y-71970996D01*
X105911653Y-71970996D02*
X105840225Y-72113853D01*
X105840225Y-72113853D02*
X105768796Y-72185282D01*
X105768796Y-72185282D02*
X105625939Y-72256710D01*
X105625939Y-72256710D02*
X105054510Y-72256710D01*
X106768796Y-72970996D02*
X106625939Y-72899568D01*
X106625939Y-72899568D02*
X106554510Y-72828139D01*
X106554510Y-72828139D02*
X106483082Y-72685282D01*
X106483082Y-72685282D02*
X106483082Y-72256710D01*
X106483082Y-72256710D02*
X106554510Y-72113853D01*
X106554510Y-72113853D02*
X106625939Y-72042425D01*
X106625939Y-72042425D02*
X106768796Y-71970996D01*
X106768796Y-71970996D02*
X106983082Y-71970996D01*
X106983082Y-71970996D02*
X107125939Y-72042425D01*
X107125939Y-72042425D02*
X107197368Y-72113853D01*
X107197368Y-72113853D02*
X107268796Y-72256710D01*
X107268796Y-72256710D02*
X107268796Y-72685282D01*
X107268796Y-72685282D02*
X107197368Y-72828139D01*
X107197368Y-72828139D02*
X107125939Y-72899568D01*
X107125939Y-72899568D02*
X106983082Y-72970996D01*
X106983082Y-72970996D02*
X106768796Y-72970996D01*
X107768796Y-71970996D02*
X108054511Y-72970996D01*
X108054511Y-72970996D02*
X108340225Y-72256710D01*
X108340225Y-72256710D02*
X108625939Y-72970996D01*
X108625939Y-72970996D02*
X108911653Y-71970996D01*
X110054511Y-72899568D02*
X109911654Y-72970996D01*
X109911654Y-72970996D02*
X109625940Y-72970996D01*
X109625940Y-72970996D02*
X109483082Y-72899568D01*
X109483082Y-72899568D02*
X109411654Y-72756710D01*
X109411654Y-72756710D02*
X109411654Y-72185282D01*
X109411654Y-72185282D02*
X109483082Y-72042425D01*
X109483082Y-72042425D02*
X109625940Y-71970996D01*
X109625940Y-71970996D02*
X109911654Y-71970996D01*
X109911654Y-71970996D02*
X110054511Y-72042425D01*
X110054511Y-72042425D02*
X110125940Y-72185282D01*
X110125940Y-72185282D02*
X110125940Y-72328139D01*
X110125940Y-72328139D02*
X109411654Y-72470996D01*
X110768796Y-72970996D02*
X110768796Y-71970996D01*
X110768796Y-72256710D02*
X110840225Y-72113853D01*
X110840225Y-72113853D02*
X110911654Y-72042425D01*
X110911654Y-72042425D02*
X111054511Y-71970996D01*
X111054511Y-71970996D02*
X111197368Y-71970996D01*
X112840224Y-72970996D02*
X112840224Y-71470996D01*
X112840224Y-71470996D02*
X113197367Y-71470996D01*
X113197367Y-71470996D02*
X113411653Y-71542425D01*
X113411653Y-71542425D02*
X113554510Y-71685282D01*
X113554510Y-71685282D02*
X113625939Y-71828139D01*
X113625939Y-71828139D02*
X113697367Y-72113853D01*
X113697367Y-72113853D02*
X113697367Y-72328139D01*
X113697367Y-72328139D02*
X113625939Y-72613853D01*
X113625939Y-72613853D02*
X113554510Y-72756710D01*
X113554510Y-72756710D02*
X113411653Y-72899568D01*
X113411653Y-72899568D02*
X113197367Y-72970996D01*
X113197367Y-72970996D02*
X112840224Y-72970996D01*
X114911653Y-72899568D02*
X114768796Y-72970996D01*
X114768796Y-72970996D02*
X114483082Y-72970996D01*
X114483082Y-72970996D02*
X114340224Y-72899568D01*
X114340224Y-72899568D02*
X114268796Y-72756710D01*
X114268796Y-72756710D02*
X114268796Y-72185282D01*
X114268796Y-72185282D02*
X114340224Y-72042425D01*
X114340224Y-72042425D02*
X114483082Y-71970996D01*
X114483082Y-71970996D02*
X114768796Y-71970996D01*
X114768796Y-71970996D02*
X114911653Y-72042425D01*
X114911653Y-72042425D02*
X114983082Y-72185282D01*
X114983082Y-72185282D02*
X114983082Y-72328139D01*
X114983082Y-72328139D02*
X114268796Y-72470996D01*
X115840224Y-72970996D02*
X115697367Y-72899568D01*
X115697367Y-72899568D02*
X115625938Y-72756710D01*
X115625938Y-72756710D02*
X115625938Y-71470996D01*
X116411652Y-72970996D02*
X116411652Y-71970996D01*
X116411652Y-71470996D02*
X116340224Y-71542425D01*
X116340224Y-71542425D02*
X116411652Y-71613853D01*
X116411652Y-71613853D02*
X116483081Y-71542425D01*
X116483081Y-71542425D02*
X116411652Y-71470996D01*
X116411652Y-71470996D02*
X116411652Y-71613853D01*
X117125938Y-72970996D02*
X117125938Y-71470996D01*
X117125938Y-72042425D02*
X117268796Y-71970996D01*
X117268796Y-71970996D02*
X117554510Y-71970996D01*
X117554510Y-71970996D02*
X117697367Y-72042425D01*
X117697367Y-72042425D02*
X117768796Y-72113853D01*
X117768796Y-72113853D02*
X117840224Y-72256710D01*
X117840224Y-72256710D02*
X117840224Y-72685282D01*
X117840224Y-72685282D02*
X117768796Y-72828139D01*
X117768796Y-72828139D02*
X117697367Y-72899568D01*
X117697367Y-72899568D02*
X117554510Y-72970996D01*
X117554510Y-72970996D02*
X117268796Y-72970996D01*
X117268796Y-72970996D02*
X117125938Y-72899568D01*
X119054510Y-72899568D02*
X118911653Y-72970996D01*
X118911653Y-72970996D02*
X118625939Y-72970996D01*
X118625939Y-72970996D02*
X118483081Y-72899568D01*
X118483081Y-72899568D02*
X118411653Y-72756710D01*
X118411653Y-72756710D02*
X118411653Y-72185282D01*
X118411653Y-72185282D02*
X118483081Y-72042425D01*
X118483081Y-72042425D02*
X118625939Y-71970996D01*
X118625939Y-71970996D02*
X118911653Y-71970996D01*
X118911653Y-71970996D02*
X119054510Y-72042425D01*
X119054510Y-72042425D02*
X119125939Y-72185282D01*
X119125939Y-72185282D02*
X119125939Y-72328139D01*
X119125939Y-72328139D02*
X118411653Y-72470996D01*
X119768795Y-72970996D02*
X119768795Y-71970996D01*
X119768795Y-72256710D02*
X119840224Y-72113853D01*
X119840224Y-72113853D02*
X119911653Y-72042425D01*
X119911653Y-72042425D02*
X120054510Y-71970996D01*
X120054510Y-71970996D02*
X120197367Y-71970996D01*
X120554509Y-71970996D02*
X120911652Y-72970996D01*
X121268795Y-71970996D02*
X120911652Y-72970996D01*
X120911652Y-72970996D02*
X120768795Y-73328139D01*
X120768795Y-73328139D02*
X120697366Y-73399568D01*
X120697366Y-73399568D02*
X120554509Y-73470996D01*
X121697366Y-73542425D02*
X121768795Y-73470996D01*
X121768795Y-73470996D02*
X121911652Y-73256710D01*
X121911652Y-73256710D02*
X121983081Y-73113853D01*
X121983081Y-73113853D02*
X122054509Y-72899568D01*
X122054509Y-72899568D02*
X122125938Y-72542425D01*
X122125938Y-72542425D02*
X122125938Y-72256710D01*
X122125938Y-72256710D02*
X122054509Y-71899568D01*
X122054509Y-71899568D02*
X121983081Y-71685282D01*
X121983081Y-71685282D02*
X121911652Y-71542425D01*
X121911652Y-71542425D02*
X121768795Y-71328139D01*
X121768795Y-71328139D02*
X121697366Y-71256710D01*
X100983082Y-75314484D02*
X101197368Y-75385912D01*
X101197368Y-75385912D02*
X101554510Y-75385912D01*
X101554510Y-75385912D02*
X101697368Y-75314484D01*
X101697368Y-75314484D02*
X101768796Y-75243055D01*
X101768796Y-75243055D02*
X101840225Y-75100198D01*
X101840225Y-75100198D02*
X101840225Y-74957341D01*
X101840225Y-74957341D02*
X101768796Y-74814484D01*
X101768796Y-74814484D02*
X101697368Y-74743055D01*
X101697368Y-74743055D02*
X101554510Y-74671626D01*
X101554510Y-74671626D02*
X101268796Y-74600198D01*
X101268796Y-74600198D02*
X101125939Y-74528769D01*
X101125939Y-74528769D02*
X101054510Y-74457341D01*
X101054510Y-74457341D02*
X100983082Y-74314484D01*
X100983082Y-74314484D02*
X100983082Y-74171626D01*
X100983082Y-74171626D02*
X101054510Y-74028769D01*
X101054510Y-74028769D02*
X101125939Y-73957341D01*
X101125939Y-73957341D02*
X101268796Y-73885912D01*
X101268796Y-73885912D02*
X101625939Y-73885912D01*
X101625939Y-73885912D02*
X101840225Y-73957341D01*
X102483081Y-75385912D02*
X102483081Y-74385912D01*
X102483081Y-73885912D02*
X102411653Y-73957341D01*
X102411653Y-73957341D02*
X102483081Y-74028769D01*
X102483081Y-74028769D02*
X102554510Y-73957341D01*
X102554510Y-73957341D02*
X102483081Y-73885912D01*
X102483081Y-73885912D02*
X102483081Y-74028769D01*
X103197367Y-74385912D02*
X103197367Y-75385912D01*
X103197367Y-74528769D02*
X103268796Y-74457341D01*
X103268796Y-74457341D02*
X103411653Y-74385912D01*
X103411653Y-74385912D02*
X103625939Y-74385912D01*
X103625939Y-74385912D02*
X103768796Y-74457341D01*
X103768796Y-74457341D02*
X103840225Y-74600198D01*
X103840225Y-74600198D02*
X103840225Y-75385912D01*
X104554510Y-75385912D02*
X104554510Y-73885912D01*
X104697368Y-74814484D02*
X105125939Y-75385912D01*
X105125939Y-74385912D02*
X104554510Y-74957341D01*
X101054510Y-77800828D02*
X101054510Y-76300828D01*
X101768796Y-76800828D02*
X101768796Y-77800828D01*
X101768796Y-76943685D02*
X101840225Y-76872257D01*
X101840225Y-76872257D02*
X101983082Y-76800828D01*
X101983082Y-76800828D02*
X102197368Y-76800828D01*
X102197368Y-76800828D02*
X102340225Y-76872257D01*
X102340225Y-76872257D02*
X102411654Y-77015114D01*
X102411654Y-77015114D02*
X102411654Y-77800828D01*
X103054511Y-77729400D02*
X103197368Y-77800828D01*
X103197368Y-77800828D02*
X103483082Y-77800828D01*
X103483082Y-77800828D02*
X103625939Y-77729400D01*
X103625939Y-77729400D02*
X103697368Y-77586542D01*
X103697368Y-77586542D02*
X103697368Y-77515114D01*
X103697368Y-77515114D02*
X103625939Y-77372257D01*
X103625939Y-77372257D02*
X103483082Y-77300828D01*
X103483082Y-77300828D02*
X103268797Y-77300828D01*
X103268797Y-77300828D02*
X103125939Y-77229400D01*
X103125939Y-77229400D02*
X103054511Y-77086542D01*
X103054511Y-77086542D02*
X103054511Y-77015114D01*
X103054511Y-77015114D02*
X103125939Y-76872257D01*
X103125939Y-76872257D02*
X103268797Y-76800828D01*
X103268797Y-76800828D02*
X103483082Y-76800828D01*
X103483082Y-76800828D02*
X103625939Y-76872257D01*
X104340225Y-76800828D02*
X104340225Y-78300828D01*
X104340225Y-76872257D02*
X104483083Y-76800828D01*
X104483083Y-76800828D02*
X104768797Y-76800828D01*
X104768797Y-76800828D02*
X104911654Y-76872257D01*
X104911654Y-76872257D02*
X104983083Y-76943685D01*
X104983083Y-76943685D02*
X105054511Y-77086542D01*
X105054511Y-77086542D02*
X105054511Y-77515114D01*
X105054511Y-77515114D02*
X104983083Y-77657971D01*
X104983083Y-77657971D02*
X104911654Y-77729400D01*
X104911654Y-77729400D02*
X104768797Y-77800828D01*
X104768797Y-77800828D02*
X104483083Y-77800828D01*
X104483083Y-77800828D02*
X104340225Y-77729400D01*
X106268797Y-77729400D02*
X106125940Y-77800828D01*
X106125940Y-77800828D02*
X105840226Y-77800828D01*
X105840226Y-77800828D02*
X105697368Y-77729400D01*
X105697368Y-77729400D02*
X105625940Y-77586542D01*
X105625940Y-77586542D02*
X105625940Y-77015114D01*
X105625940Y-77015114D02*
X105697368Y-76872257D01*
X105697368Y-76872257D02*
X105840226Y-76800828D01*
X105840226Y-76800828D02*
X106125940Y-76800828D01*
X106125940Y-76800828D02*
X106268797Y-76872257D01*
X106268797Y-76872257D02*
X106340226Y-77015114D01*
X106340226Y-77015114D02*
X106340226Y-77157971D01*
X106340226Y-77157971D02*
X105625940Y-77300828D01*
X107625940Y-77729400D02*
X107483082Y-77800828D01*
X107483082Y-77800828D02*
X107197368Y-77800828D01*
X107197368Y-77800828D02*
X107054511Y-77729400D01*
X107054511Y-77729400D02*
X106983082Y-77657971D01*
X106983082Y-77657971D02*
X106911654Y-77515114D01*
X106911654Y-77515114D02*
X106911654Y-77086542D01*
X106911654Y-77086542D02*
X106983082Y-76943685D01*
X106983082Y-76943685D02*
X107054511Y-76872257D01*
X107054511Y-76872257D02*
X107197368Y-76800828D01*
X107197368Y-76800828D02*
X107483082Y-76800828D01*
X107483082Y-76800828D02*
X107625940Y-76872257D01*
X108054511Y-76800828D02*
X108625939Y-76800828D01*
X108268796Y-76300828D02*
X108268796Y-77586542D01*
X108268796Y-77586542D02*
X108340225Y-77729400D01*
X108340225Y-77729400D02*
X108483082Y-77800828D01*
X108483082Y-77800828D02*
X108625939Y-77800828D01*
X109340225Y-77800828D02*
X109197368Y-77729400D01*
X109197368Y-77729400D02*
X109125939Y-77657971D01*
X109125939Y-77657971D02*
X109054511Y-77515114D01*
X109054511Y-77515114D02*
X109054511Y-77086542D01*
X109054511Y-77086542D02*
X109125939Y-76943685D01*
X109125939Y-76943685D02*
X109197368Y-76872257D01*
X109197368Y-76872257D02*
X109340225Y-76800828D01*
X109340225Y-76800828D02*
X109554511Y-76800828D01*
X109554511Y-76800828D02*
X109697368Y-76872257D01*
X109697368Y-76872257D02*
X109768797Y-76943685D01*
X109768797Y-76943685D02*
X109840225Y-77086542D01*
X109840225Y-77086542D02*
X109840225Y-77515114D01*
X109840225Y-77515114D02*
X109768797Y-77657971D01*
X109768797Y-77657971D02*
X109697368Y-77729400D01*
X109697368Y-77729400D02*
X109554511Y-77800828D01*
X109554511Y-77800828D02*
X109340225Y-77800828D01*
X110483082Y-77800828D02*
X110483082Y-76800828D01*
X110483082Y-77086542D02*
X110554511Y-76943685D01*
X110554511Y-76943685D02*
X110625940Y-76872257D01*
X110625940Y-76872257D02*
X110768797Y-76800828D01*
X110768797Y-76800828D02*
X110911654Y-76800828D01*
D12*
X123449580Y-95646666D02*
X123497200Y-95694285D01*
X123497200Y-95694285D02*
X123544819Y-95837142D01*
X123544819Y-95837142D02*
X123544819Y-95932380D01*
X123544819Y-95932380D02*
X123497200Y-96075237D01*
X123497200Y-96075237D02*
X123401961Y-96170475D01*
X123401961Y-96170475D02*
X123306723Y-96218094D01*
X123306723Y-96218094D02*
X123116247Y-96265713D01*
X123116247Y-96265713D02*
X122973390Y-96265713D01*
X122973390Y-96265713D02*
X122782914Y-96218094D01*
X122782914Y-96218094D02*
X122687676Y-96170475D01*
X122687676Y-96170475D02*
X122592438Y-96075237D01*
X122592438Y-96075237D02*
X122544819Y-95932380D01*
X122544819Y-95932380D02*
X122544819Y-95837142D01*
X122544819Y-95837142D02*
X122592438Y-95694285D01*
X122592438Y-95694285D02*
X122640057Y-95646666D01*
X122544819Y-95313332D02*
X122544819Y-94694285D01*
X122544819Y-94694285D02*
X122925771Y-95027618D01*
X122925771Y-95027618D02*
X122925771Y-94884761D01*
X122925771Y-94884761D02*
X122973390Y-94789523D01*
X122973390Y-94789523D02*
X123021009Y-94741904D01*
X123021009Y-94741904D02*
X123116247Y-94694285D01*
X123116247Y-94694285D02*
X123354342Y-94694285D01*
X123354342Y-94694285D02*
X123449580Y-94741904D01*
X123449580Y-94741904D02*
X123497200Y-94789523D01*
X123497200Y-94789523D02*
X123544819Y-94884761D01*
X123544819Y-94884761D02*
X123544819Y-95170475D01*
X123544819Y-95170475D02*
X123497200Y-95265713D01*
X123497200Y-95265713D02*
X123449580Y-95313332D01*
X122306069Y-92435416D02*
X122306069Y-92911606D01*
X122306069Y-92911606D02*
X121306069Y-92911606D01*
X122306069Y-91578273D02*
X122306069Y-92149701D01*
X122306069Y-91863987D02*
X121306069Y-91863987D01*
X121306069Y-91863987D02*
X121448926Y-91959225D01*
X121448926Y-91959225D02*
X121544164Y-92054463D01*
X121544164Y-92054463D02*
X121591783Y-92149701D01*
X115939345Y-93323569D02*
X115939345Y-94133092D01*
X115939345Y-94133092D02*
X115986964Y-94228330D01*
X115986964Y-94228330D02*
X116034583Y-94275950D01*
X116034583Y-94275950D02*
X116129821Y-94323569D01*
X116129821Y-94323569D02*
X116320297Y-94323569D01*
X116320297Y-94323569D02*
X116415535Y-94275950D01*
X116415535Y-94275950D02*
X116463154Y-94228330D01*
X116463154Y-94228330D02*
X116510773Y-94133092D01*
X116510773Y-94133092D02*
X116510773Y-93323569D01*
X116891726Y-93323569D02*
X117510773Y-93323569D01*
X117510773Y-93323569D02*
X117177440Y-93704521D01*
X117177440Y-93704521D02*
X117320297Y-93704521D01*
X117320297Y-93704521D02*
X117415535Y-93752140D01*
X117415535Y-93752140D02*
X117463154Y-93799759D01*
X117463154Y-93799759D02*
X117510773Y-93894997D01*
X117510773Y-93894997D02*
X117510773Y-94133092D01*
X117510773Y-94133092D02*
X117463154Y-94228330D01*
X117463154Y-94228330D02*
X117415535Y-94275950D01*
X117415535Y-94275950D02*
X117320297Y-94323569D01*
X117320297Y-94323569D02*
X117034583Y-94323569D01*
X117034583Y-94323569D02*
X116939345Y-94275950D01*
X116939345Y-94275950D02*
X116891726Y-94228330D01*
D13*
%TO.C,R5*%
X109236359Y-99620000D02*
X109543641Y-99620000D01*
X109236359Y-100380000D02*
X109543641Y-100380000D01*
%TO.C,C21*%
X140740000Y-102727836D02*
X140740000Y-102512164D01*
X141460000Y-102727836D02*
X141460000Y-102512164D01*
%TO.C,R4*%
X143846359Y-109520000D02*
X144153641Y-109520000D01*
X143846359Y-110280000D02*
X144153641Y-110280000D01*
%TO.C,U1*%
X123440000Y-97090000D02*
X124090000Y-97090000D01*
X123440000Y-97740000D02*
X123440000Y-97090000D01*
X123440000Y-103660000D02*
X123440000Y-104010000D01*
X124090000Y-104310000D02*
X123680000Y-104310000D01*
X130660000Y-97090000D02*
X130010000Y-97090000D01*
X130660000Y-97740000D02*
X130660000Y-97090000D01*
X130660000Y-103660000D02*
X130660000Y-104310000D01*
X130660000Y-104310000D02*
X130010000Y-104310000D01*
X123440000Y-104310000D02*
X123110000Y-104550000D01*
X123110000Y-104070000D01*
X123440000Y-104310000D01*
G36*
X123440000Y-104310000D02*
G01*
X123110000Y-104550000D01*
X123110000Y-104070000D01*
X123440000Y-104310000D01*
G37*
%TO.C,R2*%
X112652609Y-89451250D02*
X112959891Y-89451250D01*
X112652609Y-90211250D02*
X112959891Y-90211250D01*
%TO.C,Q3*%
X139587500Y-96440000D02*
X138937500Y-96440000D01*
X139587500Y-96440000D02*
X140237500Y-96440000D01*
X139587500Y-99560000D02*
X138937500Y-99560000D01*
X139587500Y-99560000D02*
X140237500Y-99560000D01*
X138425000Y-96490000D02*
X138185000Y-96160000D01*
X138665000Y-96160000D01*
X138425000Y-96490000D01*
G36*
X138425000Y-96490000D02*
G01*
X138185000Y-96160000D01*
X138665000Y-96160000D01*
X138425000Y-96490000D01*
G37*
%TO.C,J1*%
X156755000Y-101580000D02*
X158675000Y-101580000D01*
X158675000Y-92420000D02*
X156755000Y-92420000D01*
X160685000Y-92420000D02*
X162390000Y-92420000D01*
X162390000Y-92420000D02*
X162390000Y-101580000D01*
X162390000Y-101580000D02*
X160685000Y-101580000D01*
%TO.C,D3*%
X110390000Y-85210000D02*
X110390000Y-83900000D01*
X110390000Y-85210000D02*
X111610000Y-85210000D01*
X111610000Y-85210000D02*
X111610000Y-83900000D01*
%TO.C,Q1*%
X148362500Y-97340000D02*
X147712500Y-97340000D01*
X148362500Y-97340000D02*
X149012500Y-97340000D01*
X148362500Y-100460000D02*
X147712500Y-100460000D01*
X148362500Y-100460000D02*
X149012500Y-100460000D01*
X147200000Y-97390000D02*
X146960000Y-97060000D01*
X147440000Y-97060000D01*
X147200000Y-97390000D01*
G36*
X147200000Y-97390000D02*
G01*
X146960000Y-97060000D01*
X147440000Y-97060000D01*
X147200000Y-97390000D01*
G37*
%TO.C,C15*%
X135992164Y-105740000D02*
X136207836Y-105740000D01*
X135992164Y-106460000D02*
X136207836Y-106460000D01*
%TO.C,C12*%
X116677836Y-99640000D02*
X116462164Y-99640000D01*
X116677836Y-100360000D02*
X116462164Y-100360000D01*
%TO.C,R7*%
X116163641Y-81320000D02*
X115856359Y-81320000D01*
X116163641Y-82080000D02*
X115856359Y-82080000D01*
%TO.C,Q2*%
X143537500Y-97440000D02*
X142887500Y-97440000D01*
X143537500Y-97440000D02*
X144187500Y-97440000D01*
X143537500Y-100560000D02*
X142887500Y-100560000D01*
X143537500Y-100560000D02*
X144187500Y-100560000D01*
X144940000Y-100840000D02*
X144460000Y-100840000D01*
X144700000Y-100510000D01*
X144940000Y-100840000D01*
G36*
X144940000Y-100840000D02*
G01*
X144460000Y-100840000D01*
X144700000Y-100510000D01*
X144940000Y-100840000D01*
G37*
%TO.C,R9*%
X146336359Y-100820000D02*
X146643641Y-100820000D01*
X146336359Y-101580000D02*
X146643641Y-101580000D01*
%TO.C,R11*%
X136720000Y-97396359D02*
X136720000Y-97703641D01*
X137480000Y-97396359D02*
X137480000Y-97703641D01*
%TO.C,R13*%
X108646359Y-91120000D02*
X108953641Y-91120000D01*
X108646359Y-91880000D02*
X108953641Y-91880000D01*
%TO.C,D2*%
X119076250Y-82600000D02*
X113566250Y-82600000D01*
X119076250Y-85900000D02*
X113566250Y-85900000D01*
X119076250Y-85900000D02*
X119076250Y-82600000D01*
%TO.C,D1*%
X112015000Y-80965000D02*
X112015000Y-82435000D01*
X112015000Y-82435000D02*
X114300000Y-82435000D01*
X114300000Y-80965000D02*
X112015000Y-80965000D01*
%TO.C,C3*%
X123890000Y-95587836D02*
X123890000Y-95372164D01*
X124610000Y-95587836D02*
X124610000Y-95372164D01*
%TO.C,C10*%
X120007836Y-101040000D02*
X119792164Y-101040000D01*
X120007836Y-101760000D02*
X119792164Y-101760000D01*
%TO.C,C20*%
X143340000Y-102727836D02*
X143340000Y-102512164D01*
X144060000Y-102727836D02*
X144060000Y-102512164D01*
%TO.C,C4*%
X121707836Y-97040000D02*
X121492164Y-97040000D01*
X121707836Y-97760000D02*
X121492164Y-97760000D01*
%TO.C,C1*%
X123590000Y-105692164D02*
X123590000Y-105907836D01*
X124310000Y-105692164D02*
X124310000Y-105907836D01*
D14*
%TO.C,SW2*%
X103262000Y-80200000D02*
X105138000Y-80200000D01*
X103262000Y-83800000D02*
X105138000Y-83800000D01*
X101994670Y-84475000D02*
G75*
G02*
X101901330Y-84475000I-46670J0D01*
G01*
X101901330Y-84475000D02*
G75*
G02*
X101994670Y-84475000I46670J0D01*
G01*
D13*
%TO.C,C5*%
X132812164Y-99890000D02*
X133027836Y-99890000D01*
X132812164Y-100610000D02*
X133027836Y-100610000D01*
%TO.C,C8*%
X122590000Y-105692164D02*
X122590000Y-105907836D01*
X123310000Y-105692164D02*
X123310000Y-105907836D01*
%TO.C,R16*%
X125920000Y-107553641D02*
X125920000Y-107246359D01*
X126680000Y-107553641D02*
X126680000Y-107246359D01*
%TO.C,U2*%
X110725000Y-100675000D02*
X110725000Y-100935000D01*
X110725000Y-106125000D02*
X110725000Y-105865000D01*
X113450000Y-100675000D02*
X110725000Y-100675000D01*
X113450000Y-100675000D02*
X116175000Y-100675000D01*
X113450000Y-106125000D02*
X110725000Y-106125000D01*
X113450000Y-106125000D02*
X116175000Y-106125000D01*
X116175000Y-100675000D02*
X116175000Y-100935000D01*
X116175000Y-106125000D02*
X116175000Y-105865000D01*
X109942500Y-100935000D02*
X109702500Y-100605000D01*
X110182500Y-100605000D01*
X109942500Y-100935000D01*
G36*
X109942500Y-100935000D02*
G01*
X109702500Y-100605000D01*
X110182500Y-100605000D01*
X109942500Y-100935000D01*
G37*
%TO.C,C17*%
X107540000Y-97607836D02*
X107540000Y-97392164D01*
X108260000Y-97607836D02*
X108260000Y-97392164D01*
%TO.C,L1*%
X119741250Y-91869128D02*
X119741250Y-92668372D01*
X120861250Y-91869128D02*
X120861250Y-92668372D01*
%TO.C,D5*%
X110521250Y-89221250D02*
X110521250Y-90531250D01*
X111741250Y-89221250D02*
X110521250Y-89221250D01*
X111741250Y-89221250D02*
X111741250Y-90531250D01*
%TO.C,Y2*%
X138100000Y-102250000D02*
X134100000Y-102250000D01*
X138100000Y-105550000D02*
X138100000Y-102250000D01*
%TO.C,R6*%
X136153641Y-101270000D02*
X135846359Y-101270000D01*
X136153641Y-102030000D02*
X135846359Y-102030000D01*
%TO.C,C18*%
X112708750Y-93079086D02*
X112708750Y-92863414D01*
X113428750Y-93079086D02*
X113428750Y-92863414D01*
%TO.C,C14*%
X116093414Y-88908750D02*
X116309086Y-88908750D01*
X116093414Y-89628750D02*
X116309086Y-89628750D01*
%TO.C,C16*%
X138340000Y-103792164D02*
X138340000Y-104007836D01*
X139060000Y-103792164D02*
X139060000Y-104007836D01*
%TO.C,R8*%
X115593641Y-97020000D02*
X115286359Y-97020000D01*
X115593641Y-97780000D02*
X115286359Y-97780000D01*
%TO.C,R10*%
X144370000Y-102703641D02*
X144370000Y-102396359D01*
X145130000Y-102703641D02*
X145130000Y-102396359D01*
%TO.C,C11*%
X121637836Y-98240000D02*
X121422164Y-98240000D01*
X121637836Y-98960000D02*
X121422164Y-98960000D01*
%TO.C,R1*%
X112652609Y-88451250D02*
X112959891Y-88451250D01*
X112652609Y-89211250D02*
X112959891Y-89211250D01*
D15*
%TO.C,IC2*%
X140300000Y-104750000D02*
G75*
G02*
X140050000Y-104750000I-125000J0D01*
G01*
X140050000Y-104750000D02*
G75*
G02*
X140300000Y-104750000I125000J0D01*
G01*
D13*
%TO.C,C19*%
X113658750Y-93059086D02*
X113658750Y-92843414D01*
X114378750Y-93059086D02*
X114378750Y-92843414D01*
%TO.C,C9*%
X132812164Y-98940000D02*
X133027836Y-98940000D01*
X132812164Y-99660000D02*
X133027836Y-99660000D01*
D14*
%TO.C,SW1*%
X103062000Y-95839165D02*
X104938000Y-95839165D01*
X103062000Y-99439165D02*
X104938000Y-99439165D01*
X101794670Y-100114165D02*
G75*
G02*
X101701330Y-100114165I-46670J0D01*
G01*
X101701330Y-100114165D02*
G75*
G02*
X101794670Y-100114165I46670J0D01*
G01*
D13*
%TO.C,J3*%
X99215000Y-85420000D02*
X100920000Y-85420000D01*
X99215000Y-94580000D02*
X99215000Y-85420000D01*
X100920000Y-94580000D02*
X99215000Y-94580000D01*
X102930000Y-94580000D02*
X104850000Y-94580000D01*
X104850000Y-85420000D02*
X102930000Y-85420000D01*
%TO.C,R17*%
X132727500Y-102237742D02*
X132727500Y-102712258D01*
X133772500Y-102237742D02*
X133772500Y-102712258D01*
%TO.C,D4*%
X110521250Y-89091250D02*
X110521250Y-87781250D01*
X110521250Y-89091250D02*
X111741250Y-89091250D01*
X111741250Y-89091250D02*
X111741250Y-87781250D01*
%TO.C,R14*%
X108936359Y-88220000D02*
X109243641Y-88220000D01*
X108936359Y-88980000D02*
X109243641Y-88980000D01*
%TO.C,U3*%
X117951250Y-90283750D02*
X115451250Y-90283750D01*
X117951250Y-93053750D02*
X115451250Y-93053750D01*
X118501250Y-93448750D02*
X118501250Y-92968750D01*
X118981250Y-92968750D01*
X118501250Y-93448750D01*
G36*
X118501250Y-93448750D02*
G01*
X118501250Y-92968750D01*
X118981250Y-92968750D01*
X118501250Y-93448750D01*
G37*
%TO.C,R12*%
X139846359Y-95420000D02*
X140153641Y-95420000D01*
X139846359Y-96180000D02*
X140153641Y-96180000D01*
%TO.C,C13*%
X117789086Y-87808750D02*
X117573414Y-87808750D01*
X117789086Y-88528750D02*
X117573414Y-88528750D01*
%TO.C,C7*%
X121727836Y-96090000D02*
X121512164Y-96090000D01*
X121727836Y-96810000D02*
X121512164Y-96810000D01*
%TO.C,R3*%
X116487258Y-98177500D02*
X116012742Y-98177500D01*
X116487258Y-99222500D02*
X116012742Y-99222500D01*
%TO.C,R15*%
X126870000Y-107543641D02*
X126870000Y-107236359D01*
X127630000Y-107543641D02*
X127630000Y-107236359D01*
%TO.C,C2*%
X128592164Y-95640000D02*
X128807836Y-95640000D01*
X128592164Y-96360000D02*
X128807836Y-96360000D01*
%TO.C,C6*%
X128592164Y-105340000D02*
X128807836Y-105340000D01*
X128592164Y-106060000D02*
X128807836Y-106060000D01*
%TD*%
M02*
