M48
; DRILL file {KiCad 8.0.6} date 2025-04-13T21:58:43+0900
; FORMAT={-:-/ absolute / inch / decimal}
; #@! TF.CreationDate,2025-04-13T21:58:43+09:00
; #@! TF.GenerationSoftware,Kicad,Pcbnew,8.0.6
; #@! TF.FileFunction,Plated,1,2,PTH
FMAT,2
INCH
; #@! TA.AperFunction,Plated,PTH,ViaDrill
T1C0.0079
; #@! TA.AperFunction,Plated,PTH,ViaDrill
T2C0.0236
; #@! TA.AperFunction,Plated,PTH,ComponentDrill
T3C0.0236
%
G90
G05
T1
X3.9567Y-3.7402
X3.9606Y-3.2244
X3.9646Y-3.3386
X4.0118Y-3.748
X4.0118Y-3.8425
X4.0354Y-3.6181
X4.0591Y-3.3346
X4.063Y-3.1024
X4.063Y-3.8661
X4.0669Y-3.7402
X4.0748Y-3.3819
X4.0787Y-3.2283
X4.0984Y-3.9685
X4.1024Y-3.3031
X4.122Y-3.1417
X4.122Y-3.9173
X4.126Y-3.4055
X4.1339Y-3.252
X4.1339Y-3.752
X4.1339Y-3.8465
X4.1417Y-3.5984
X4.1575Y-3.4961
X4.2126Y-3.752
X4.2205Y-4.0551
X4.2283Y-3.3268
X4.2402Y-3.2323
X4.2441Y-3.5138
X4.248Y-3.3937
X4.248Y-3.9724
X4.252Y-3.9291
X4.2598Y-3.1142
X4.2717Y-4.2913
X4.2795Y-4.1181
X4.2835Y-3.8071
X4.3071Y-3.2913
X4.311Y-3.185
X4.311Y-3.7362
X4.3209Y-3.5728
X4.3346Y-4.1811
X4.3504Y-3.2441
X4.3543Y-3.7087
X4.3583Y-3.9646
X4.372Y-4.0512
X4.374Y-3.622
X4.374Y-4.1417
X4.378Y-4.0197
X4.3858Y-3.7559
X4.3898Y-3.1772
X4.3898Y-3.9213
X4.4055Y-3.8071
X4.4094Y-3.2598
X4.4094Y-4.0551
X4.4094Y-4.1102
X4.4252Y-3.4134
X4.437Y-3.6102
X4.437Y-4.1969
X4.4409Y-3.1299
X4.4409Y-3.563
X4.4449Y-3.7677
X4.4449Y-3.937
X4.4449Y-3.9921
X4.4528Y-4.1299
X4.4567Y-4.1024
X4.4646Y-3.2559
X4.4685Y-3.7087
X4.4764Y-3.5866
X4.4803Y-4.0551
X4.4843Y-3.4973
X4.4921Y-3.8071
X4.4948Y-3.5367
X4.5Y-3.9528
X4.5039Y-3.9094
X4.5079Y-3.563
X4.5079Y-3.6102
X4.5079Y-4.0118
X4.5118Y-3.8622
X4.5118Y-4.1535
X4.5157Y-3.6614
X4.5374Y-4.1496
X4.5433Y-3.1654
X4.5472Y-3.311
X4.5512Y-3.7913
X4.5512Y-4.0433
X4.5551Y-3.4764
X4.5591Y-3.7362
X4.5591Y-3.9764
X4.5709Y-3.2598
X4.5827Y-3.5827
X4.6024Y-3.6063
X4.6063Y-3.6378
X4.622Y-3.1614
X4.626Y-2.9488
X4.626Y-3.7283
X4.6339Y-3.2283
X4.6417Y-3.1102
X4.6496Y-3.7559
X4.6614Y-3.0118
X4.6614Y-4.0709
X4.6673Y-4.1929
X4.6732Y-3.7736
X4.6732Y-4.1181
X4.6811Y-2.815
X4.6908Y-3.8053
X4.6929Y-3.2717
X4.6929Y-3.4764
X4.6929Y-3.5591
X4.7008Y-3.1811
X4.7008Y-3.3898
X4.7036Y-4.1702
X4.7087Y-4.0197
X4.7165Y-3.7677
X4.7205Y-3.5236
X4.7283Y-3.0906
X4.7283Y-3.3228
X4.7362Y-3.1693
X4.7402Y-3.2126
X4.7402Y-3.8386
X4.7441Y-3.126
X4.748Y-2.9744
X4.748Y-3.4961
X4.748Y-3.7717
X4.752Y-3.2795
X4.7559Y-3.3583
X4.7598Y-3.5512
X4.7638Y-4.1811
X4.7874Y-3.7165
X4.7992Y-4.2126
X4.8031Y-3.311
X4.8031Y-3.5
X4.8031Y-3.6654
X4.8071Y-3.1535
X4.8189Y-4.2559
X4.8209Y-2.9508
X4.8307Y-3.7638
X4.8386Y-4.0945
X4.8465Y-3.1496
X4.8465Y-3.1929
X4.8583Y-3.5551
X4.8622Y-3.2165
X4.8622Y-3.2953
X4.8622Y-3.3268
X4.8622Y-3.6654
X4.8739Y-2.929
X4.878Y-3.2717
X4.878Y-3.8071
X4.8819Y-4.2165
X4.8976Y-3.1496
X4.9016Y-3.248
X4.9035Y-3.9902
X4.9055Y-3.2047
X4.9055Y-3.4291
X4.9055Y-4.0591
X4.9055Y-4.2874
X4.9094Y-3.374
X4.9173Y-2.9134
X4.9213Y-3.9075
X4.9232Y-3.9331
X4.9232Y-4.0295
X4.9291Y-4.1339
X4.9331Y-2.937
X4.9409Y-3.1299
X4.9449Y-2.8898
X4.9449Y-2.9961
X4.9449Y-3.2992
X4.9449Y-4.1929
X4.9488Y-3.189
X4.9528Y-3.4331
X4.9528Y-3.5748
X4.9547Y-3.9193
X4.9547Y-3.9803
X4.9567Y-3.9488
X4.9567Y-4.1339
X4.9606Y-3.0906
X4.9626Y-4.0098
X4.9646Y-3.0236
X4.9646Y-3.7953
X4.9685Y-3.0551
X4.9685Y-3.252
X4.9724Y-3.5276
X4.9744Y-4.061
X4.9764Y-2.9213
X4.9803Y-4.2795
X4.9843Y-4.1664
X4.9882Y-3.3583
X4.9882Y-3.9311
X5.0Y-4.0098
X5.002Y-3.9646
X5.002Y-4.0413
X5.0039Y-3.063
X5.0039Y-3.7874
X5.0039Y-4.1496
X5.0118Y-2.8268
X5.0118Y-3.9173
X5.0197Y-2.8819
X5.0205Y-4.185
X5.0217Y-3.9843
X5.0236Y-4.2874
X5.0276Y-3.5591
X5.0315Y-2.9331
X5.0354Y-3.3189
X5.0394Y-3.9331
X5.0433Y-3.4764
X5.0472Y-3.4055
X5.0472Y-3.9665
X5.0472Y-4.002
X5.0492Y-4.063
X5.063Y-2.9055
X5.0669Y-3.748
X5.0669Y-4.1339
X5.0709Y-4.0138
X5.0728Y-4.0492
X5.0768Y-3.9665
X5.0787Y-4.2244
X5.0827Y-4.189
X5.0866Y-4.3504
X5.0906Y-2.7559
X5.0945Y-4.063
X5.0984Y-2.9331
X5.0984Y-3.9803
X5.1024Y-2.7283
X5.1024Y-2.8071
X5.1024Y-3.874
X5.1063Y-3.937
X5.1102Y-3.6693
X5.124Y-2.7067
X5.126Y-2.8819
X5.126Y-3.7677
X5.1299Y-4.3031
X5.1339Y-3.8189
X5.1378Y-4.2559
X5.1417Y-4.1142
X5.1496Y-2.685
X5.1535Y-2.9291
X5.1693Y-2.7638
X5.1693Y-2.8937
X5.1693Y-4.1732
X5.1732Y-4.3031
X5.1811Y-3.7598
X5.1811Y-3.9055
X5.1811Y-4.0118
X5.185Y-4.2165
X5.189Y-2.8346
X5.189Y-3.6693
X5.189Y-3.8307
X5.2047Y-4.063
X5.2205Y-2.9331
X5.2205Y-3.8622
X5.2283Y-3.815
X5.2323Y-2.8858
X5.2441Y-2.7874
X5.2441Y-4.2638
X5.2677Y-3.8622
X5.2717Y-3.6772
X5.2717Y-3.7244
X5.2795Y-2.8189
X5.2795Y-2.9016
X5.2795Y-3.9528
X5.2795Y-4.2205
X5.2913Y-3.9803
X5.2953Y-4.1654
X5.2972Y-3.9075
X5.311Y-2.7598
X5.315Y-3.9449
X5.3268Y-3.7244
X5.3386Y-4.2638
X5.3543Y-3.7677
X5.3543Y-4.3031
X5.3583Y-3.6811
X5.3583Y-3.9724
X5.3583Y-4.0906
X5.3622Y-4.2047
X5.3701Y-3.937
X5.3819Y-2.811
X5.3898Y-2.7559
X5.3898Y-2.9213
X5.4016Y-3.7165
X5.4016Y-4.1614
X5.4094Y-3.9961
X5.4173Y-4.2638
X5.4291Y-3.9685
X5.4331Y-2.9409
X5.4449Y-4.1339
X5.4567Y-4.1811
X5.4606Y-3.7598
X5.4606Y-3.7913
X5.4646Y-2.8268
X5.4646Y-3.7323
X5.4646Y-3.937
X5.4685Y-4.0394
X5.4764Y-2.685
X5.4882Y-2.7244
X5.4882Y-4.0866
X5.4921Y-4.2165
X5.5Y-4.1535
X5.5Y-4.2441
X5.5079Y-4.3031
X5.5118Y-2.8228
X5.5197Y-3.689
X5.5197Y-4.0945
X5.5276Y-4.2835
X5.5433Y-3.9882
X5.5551Y-3.937
X5.5551Y-4.3465
X5.5591Y-3.7638
X5.5709Y-3.9803
X5.5709Y-4.3228
X5.5787Y-4.2126
X5.5787Y-4.2402
X5.5846Y-4.1831
X5.5984Y-3.7008
X5.6063Y-4.3228
X5.6122Y-4.2028
X5.6201Y-4.2362
X5.626Y-3.7677
X5.6299Y-3.8228
X5.6358Y-4.1772
X5.6437Y-4.2067
X5.6457Y-3.9528
X5.6496Y-3.9921
X5.6496Y-4.2421
X5.6732Y-3.9646
X5.6871Y-4.0969
X5.6929Y-3.7913
X5.7087Y-3.6811
X5.7087Y-3.7362
X5.7126Y-4.2795
X5.7205Y-3.9764
X5.7205Y-4.0925
X5.7205Y-4.3268
X5.7244Y-4.185
X5.7402Y-2.9685
X5.752Y-4.0354
X5.7559Y-3.8465
X5.7795Y-3.748
X5.7874Y-4.2087
X5.7913Y-3.7953
X5.7913Y-4.0394
X5.815Y-3.8937
X5.8228Y-3.7008
X5.8228Y-4.0039
X5.8386Y-3.7638
X5.8386Y-3.8228
X5.8386Y-3.9606
X5.8386Y-4.1299
X5.874Y-4.0984
X5.8858Y-3.685
X5.8858Y-4.2244
X5.8898Y-3.752
X5.9094Y-4.0591
X5.9134Y-3.9213
X5.9173Y-3.8622
X5.9173Y-3.9803
X5.937Y-3.6969
X5.937Y-4.0118
X5.9528Y-3.8268
X5.9528Y-4.1181
X5.9606Y-3.8583
X5.9685Y-3.9291
X5.9764Y-3.6732
X5.9843Y-3.7795
X5.9843Y-3.9921
X5.9882Y-3.8661
X6.0079Y-3.9449
X6.0157Y-3.7638
X6.0157Y-3.8268
X6.0236Y-4.0984
X6.0315Y-3.8819
X6.0433Y-3.6772
X6.0551Y-3.7874
X6.0551Y-3.8425
X6.0551Y-3.9488
X6.0984Y-4.0315
X6.1969Y-4.0118
X6.2441Y-3.689
X6.311Y-4.0551
X6.3425Y-3.6102
X6.3425Y-3.9685
X7.0984Y-3.4843
T2
X4.2677Y-3.6535
X4.3425Y-3.3937
X4.4055Y-3.6654
X4.6321Y-3.8315
X4.6654Y-3.1496
X4.6936Y-3.9402
X4.7972Y-4.1465
X5.5689Y-2.7165
T3
G00X4.0285Y-3.3732
M15
G01X3.997Y-3.3732
M16
G05
G00X4.0285Y-3.7134
M15
G01X3.997Y-3.7134
M16
G05
G00X4.1998Y-3.3732
M15
G01X4.1565Y-3.3732
M16
G05
G00X4.1998Y-3.7134
M15
G01X4.1565Y-3.7134
M16
G05
G00X6.0996Y-3.6488
M15
G01X6.1429Y-3.6488
M16
G05
G00X6.0996Y-3.989
M15
G01X6.1429Y-3.989
M16
G05
G00X6.2709Y-3.6488
M15
G01X6.3024Y-3.6488
M16
G05
G00X6.2709Y-3.989
M15
G01X6.3024Y-3.989
M16
G05
M30
