M48
; DRILL file {KiCad 8.0.6} date 2025-04-14T23:16:29+0900
; FORMAT={-:-/ absolute / inch / decimal}
; #@! TF.CreationDate,2025-04-14T23:16:29+09:00
; #@! TF.GenerationSoftware,Kicad,Pcbnew,8.0.6
; #@! TF.FileFunction,Plated,1,2,PTH
FMAT,2
INCH
; #@! TA.AperFunction,Plated,PTH,ViaDrill
T1C0.0079
; #@! TA.AperFunction,Plated,PTH,ViaDrill
T2C0.0236
; #@! TA.AperFunction,Plated,PTH,ComponentDrill
T3C0.0236
%
G90
G05
T1
X3.9567Y-2.9528
X3.9567Y-3.0748
X3.9567Y-3.7402
X3.9606Y-3.2244
X3.9606Y-3.9409
X3.9646Y-2.8031
X3.9646Y-3.3386
X3.9646Y-4.1339
X3.9685Y-3.437
X3.9724Y-3.6063
X3.9764Y-2.7165
X3.9764Y-3.1102
X3.9921Y-2.5
X3.9921Y-2.6063
X4.0Y-4.2047
X4.0079Y-3.5079
X4.0118Y-3.748
X4.0118Y-3.8425
X4.0157Y-4.0236
X4.0354Y-3.6181
X4.0591Y-3.3346
X4.0591Y-4.2953
X4.063Y-3.1024
X4.063Y-3.8661
X4.0669Y-3.7402
X4.0748Y-2.8937
X4.0748Y-3.3819
X4.0748Y-3.437
X4.0748Y-3.5433
X4.0787Y-3.2283
X4.0787Y-3.6654
X4.0984Y-2.9921
X4.0984Y-3.9685
X4.1024Y-3.3031
X4.122Y-3.1417
X4.122Y-3.9173
X4.126Y-3.4055
X4.1299Y-3.6811
X4.1339Y-3.252
X4.1339Y-3.3386
X4.1339Y-3.752
X4.1339Y-3.8465
X4.1417Y-2.4409
X4.1417Y-3.5984
X4.1575Y-2.9252
X4.1575Y-3.4961
X4.1654Y-4.0079
X4.1693Y-4.3504
X4.189Y-3.0906
X4.1929Y-2.7835
X4.1929Y-4.2913
X4.2008Y-2.9921
X4.2126Y-3.752
X4.2205Y-4.0551
X4.2205Y-4.2205
X4.2283Y-3.3268
X4.2362Y-2.6575
X4.2402Y-3.2323
X4.2441Y-3.5138
X4.2441Y-3.8858
X4.248Y-3.3937
X4.248Y-3.9724
X4.252Y-3.748
X4.252Y-3.9291
X4.2598Y-3.1142
X4.2717Y-2.4409
X4.2717Y-3.8976
X4.2717Y-4.0197
X4.2756Y-2.8976
X4.2795Y-4.1181
X4.2835Y-3.6929
X4.2835Y-3.8071
X4.3071Y-3.2913
X4.311Y-2.9724
X4.311Y-3.185
X4.311Y-3.7362
X4.311Y-3.8661
X4.311Y-4.2717
X4.3209Y-3.5728
X4.3228Y-2.5709
X4.3307Y-3.0906
X4.3346Y-2.748
X4.3346Y-3.7835
X4.3346Y-4.1811
X4.3504Y-2.8937
X4.3504Y-3.2441
X4.3543Y-3.7087
X4.3543Y-3.9134
X4.3583Y-3.9646
X4.3701Y-4.2244
X4.3701Y-4.3504
X4.372Y-4.0512
X4.374Y-3.622
X4.374Y-4.1417
X4.378Y-4.0197
X4.3819Y-2.4449
X4.3819Y-3.374
X4.3858Y-3.7559
X4.3898Y-3.1772
X4.3898Y-3.9213
X4.3937Y-3.9764
X4.4055Y-3.8071
X4.4094Y-3.2598
X4.4094Y-3.4488
X4.4094Y-4.0551
X4.4094Y-4.1102
X4.4134Y-2.685
X4.4173Y-3.8622
X4.4252Y-3.4134
X4.4291Y-3.0433
X4.4331Y-4.2677
X4.437Y-2.5079
X4.437Y-3.6102
X4.437Y-4.1969
X4.4409Y-2.7756
X4.4409Y-3.1299
X4.4409Y-3.563
X4.4449Y-3.7677
X4.4449Y-3.937
X4.4449Y-3.9921
X4.4528Y-4.1299
X4.4567Y-4.1024
X4.4646Y-2.9252
X4.4646Y-3.2559
X4.4685Y-3.7087
X4.4724Y-2.626
X4.4724Y-3.3819
X4.4764Y-3.5866
X4.4803Y-4.0551
X4.4843Y-3.4973
X4.4921Y-3.8071
X4.4948Y-3.5367
X4.5Y-3.4685
X4.5Y-3.9528
X4.5039Y-3.7559
X4.5039Y-3.9094
X4.5079Y-3.563
X4.5079Y-3.6102
X4.5079Y-4.0118
X4.5118Y-3.8622
X4.5118Y-4.1535
X4.5157Y-2.9961
X4.5157Y-3.6614
X4.5236Y-4.1024
X4.5236Y-4.2598
X4.5315Y-2.5157
X4.5315Y-4.2008
X4.5374Y-4.1496
X4.5433Y-3.1654
X4.5433Y-3.4409
X4.5472Y-3.0787
X4.5472Y-3.311
X4.5512Y-2.689
X4.5512Y-3.7913
X4.5512Y-4.0433
X4.5551Y-3.4764
X4.5591Y-2.7874
X4.5591Y-3.4094
X4.5591Y-3.7362
X4.5591Y-3.9764
X4.5591Y-4.122
X4.5669Y-4.3307
X4.5709Y-3.2598
X4.5787Y-3.4606
X4.5827Y-3.5827
X4.5906Y-3.1535
X4.5945Y-2.9173
X4.6024Y-3.4291
X4.6024Y-3.6063
X4.6063Y-3.378
X4.6063Y-3.6378
X4.6142Y-2.5748
X4.626Y-3.7283
X4.6339Y-3.2283
X4.6378Y-3.0394
X4.6496Y-3.7559
X4.6496Y-4.2283
X4.6614Y-4.0709
X4.6654Y-2.7756
X4.6673Y-4.1929
X4.6732Y-3.7736
X4.6732Y-4.1181
X4.685Y-4.3504
X4.689Y-2.6693
X4.6908Y-3.8053
X4.6929Y-3.2717
X4.6929Y-3.4764
X4.6929Y-3.5591
X4.6969Y-2.8031
X4.7008Y-3.0787
X4.7008Y-3.3898
X4.7036Y-4.1702
X4.7087Y-4.0197
X4.7165Y-3.626
X4.7165Y-3.7677
X4.7205Y-3.1535
X4.7205Y-3.5236
X4.7283Y-3.3228
X4.7323Y-4.2559
X4.7402Y-3.2126
X4.7402Y-3.8386
X4.7441Y-2.9331
X4.748Y-3.7717
X4.752Y-3.2795
X4.7559Y-3.3583
X4.7598Y-3.3937
X4.7598Y-3.4724
X4.7598Y-3.5512
X4.7598Y-3.6339
X4.7638Y-4.1811
X4.7717Y-2.6024
X4.7795Y-3.0709
X4.7835Y-3.1339
X4.7835Y-4.3504
X4.7874Y-3.7165
X4.7992Y-4.2126
X4.8031Y-3.5
X4.8031Y-3.6654
X4.815Y-2.9882
X4.8189Y-4.2559
X4.8268Y-2.5197
X4.8307Y-3.7638
X4.8346Y-2.7323
X4.8386Y-4.0945
X4.8425Y-2.7598
X4.8465Y-3.2283
X4.8543Y-3.2598
X4.8583Y-3.5551
X4.8622Y-3.1732
X4.8622Y-3.6654
X4.874Y-3.0472
X4.878Y-3.8071
X4.8819Y-2.622
X4.8819Y-4.2165
X4.8858Y-4.3465
X4.9016Y-2.878
X4.9016Y-4.252
X4.9035Y-3.9902
X4.9055Y-3.4291
X4.9055Y-4.0591
X4.9094Y-3.374
X4.9134Y-3.2953
X4.9213Y-3.9075
X4.9232Y-3.9331
X4.9232Y-4.0295
X4.9291Y-4.1339
X4.9331Y-3.2165
X4.9449Y-4.1929
X4.9488Y-2.8583
X4.9528Y-2.5039
X4.9528Y-3.2677
X4.9528Y-3.4331
X4.9528Y-3.5748
X4.9547Y-3.9193
X4.9547Y-3.9803
X4.9567Y-3.9488
X4.9567Y-4.1339
X4.9626Y-4.0098
X4.9646Y-3.7953
X4.9685Y-2.7126
X4.9724Y-3.5276
X4.9744Y-4.061
X4.9764Y-2.9409
X4.9764Y-3.2047
X4.9803Y-4.2795
X4.9843Y-4.1664
X4.9882Y-3.0433
X4.9882Y-3.3583
X4.9882Y-3.9311
X4.9882Y-4.3268
X5.0Y-4.0098
X5.002Y-3.9646
X5.002Y-4.0413
X5.0039Y-3.7874
X5.0039Y-4.1496
X5.0079Y-2.7992
X5.0118Y-3.9173
X5.0157Y-2.5748
X5.0157Y-3.1496
X5.0205Y-4.185
X5.0217Y-3.9843
X5.0236Y-4.2874
X5.0276Y-2.8622
X5.0276Y-3.5591
X5.0354Y-3.3189
X5.0394Y-3.9331
X5.0433Y-3.4764
X5.0472Y-3.4055
X5.0472Y-3.9665
X5.0472Y-4.002
X5.0492Y-4.063
X5.0669Y-3.748
X5.0669Y-4.1339
X5.0709Y-4.0138
X5.0728Y-4.0492
X5.0748Y-2.7047
X5.0748Y-3.0945
X5.0748Y-3.1457
X5.0768Y-3.9665
X5.0787Y-3.252
X5.0787Y-4.2244
X5.0827Y-4.189
X5.0866Y-4.3504
X5.0906Y-3.0591
X5.0945Y-4.063
X5.0984Y-3.9803
X5.1024Y-3.874
X5.1063Y-3.1102
X5.1063Y-3.937
X5.1102Y-2.7992
X5.1102Y-3.6693
X5.1142Y-3.4646
X5.1142Y-4.185
X5.1181Y-4.1457
X5.126Y-2.5512
X5.126Y-3.0827
X5.126Y-3.2165
X5.126Y-3.7677
X5.1299Y-2.7559
X5.1299Y-3.2874
X5.1299Y-4.3031
X5.1339Y-2.937
X5.1339Y-3.5709
X5.1339Y-3.8189
X5.1378Y-3.3937
X5.1378Y-4.2559
X5.1417Y-4.1142
X5.1535Y-2.8858
X5.1614Y-2.6299
X5.1654Y-2.9843
X5.1654Y-3.0551
X5.1693Y-2.5197
X5.1693Y-4.1732
X5.1732Y-4.3031
X5.1811Y-3.1142
X5.1811Y-3.7598
X5.1811Y-3.9055
X5.1811Y-4.0118
X5.1811Y-4.1142
X5.185Y-2.8661
X5.185Y-4.2165
X5.189Y-3.3307
X5.189Y-3.6693
X5.189Y-3.8307
X5.1969Y-3.0079
X5.1969Y-3.1772
X5.2047Y-3.2283
X5.2047Y-3.5157
X5.2047Y-4.063
X5.2126Y-2.937
X5.2165Y-2.8268
X5.2205Y-2.6969
X5.2205Y-3.8622
X5.2283Y-3.4291
X5.2283Y-3.815
X5.2283Y-4.1772
X5.2362Y-2.9843
X5.2441Y-4.1024
X5.2441Y-4.2638
X5.2441Y-4.3504
X5.248Y-3.2835
X5.252Y-2.8268
X5.252Y-3.0394
X5.2559Y-2.9055
X5.2677Y-3.8622
X5.2717Y-2.7638
X5.2717Y-3.563
X5.2717Y-3.6772
X5.2717Y-3.7244
X5.2795Y-2.9331
X5.2795Y-3.9528
X5.2795Y-4.2205
X5.2835Y-2.8701
X5.2835Y-3.2008
X5.2874Y-3.0039
X5.2874Y-3.1063
X5.2913Y-2.4528
X5.2913Y-3.9803
X5.2953Y-3.3622
X5.2953Y-4.1654
X5.2972Y-3.9075
X5.3071Y-2.5354
X5.3071Y-2.6024
X5.315Y-2.7992
X5.315Y-3.9449
X5.3228Y-4.3465
X5.3268Y-3.311
X5.3268Y-3.7244
X5.3346Y-3.4606
X5.3386Y-4.2638
X5.3543Y-3.7677
X5.3543Y-4.3031
X5.3583Y-3.6811
X5.3583Y-3.9724
X5.3583Y-4.0906
X5.3622Y-3.185
X5.3622Y-4.2047
X5.3701Y-3.4134
X5.3701Y-3.937
X5.378Y-2.7638
X5.378Y-3.1102
X5.3858Y-2.8071
X5.3898Y-2.6929
X5.3898Y-2.8543
X5.3937Y-2.9055
X5.4016Y-3.5197
X5.4016Y-3.7165
X5.4016Y-4.1614
X5.4094Y-3.2874
X5.4094Y-3.9961
X5.4134Y-2.8819
X5.4173Y-4.2638
X5.4213Y-3.0276
X5.4291Y-3.9685
X5.437Y-3.5787
X5.4409Y-2.8858
X5.4409Y-2.9488
X5.4449Y-4.1339
X5.4488Y-4.2441
X5.4567Y-4.1811
X5.4606Y-3.7598
X5.4606Y-3.7913
X5.4646Y-2.5866
X5.4646Y-2.9213
X5.4646Y-3.3976
X5.4646Y-3.7323
X5.4646Y-3.937
X5.4646Y-3.9961
X5.4685Y-3.189
X5.4685Y-4.0394
X5.4803Y-2.4606
X5.4803Y-2.626
X5.4843Y-3.4528
X5.4882Y-2.7008
X5.4882Y-3.0906
X5.4882Y-4.0866
X5.4921Y-4.2165
X5.4961Y-2.8583
X5.5Y-2.5512
X5.5Y-4.1535
X5.5Y-4.2441
X5.5039Y-2.8307
X5.5039Y-3.8228
X5.5079Y-3.0039
X5.5079Y-4.3031
X5.5118Y-3.2953
X5.5197Y-3.689
X5.5197Y-4.0945
X5.5236Y-3.4843
X5.5276Y-2.7283
X5.5276Y-4.2835
X5.5394Y-2.8228
X5.5433Y-3.9882
X5.5472Y-3.5512
X5.5512Y-3.1732
X5.5551Y-2.9094
X5.5551Y-3.937
X5.5551Y-4.3465
X5.5591Y-3.7638
X5.5591Y-3.8228
X5.5669Y-2.6693
X5.5669Y-3.378
X5.5709Y-3.9803
X5.5709Y-4.3228
X5.5787Y-2.4843
X5.5787Y-3.2283
X5.5787Y-4.2126
X5.5787Y-4.2402
X5.5846Y-4.1831
X5.5906Y-2.6024
X5.5906Y-3.1024
X5.5906Y-3.2953
X5.5945Y-2.8583
X5.5945Y-3.8583
X5.5984Y-3.7008
X5.6024Y-2.7323
X5.6063Y-3.4764
X5.6063Y-4.3228
X5.6102Y-3.0315
X5.6122Y-4.2028
X5.6201Y-4.2362
X5.622Y-2.9882
X5.626Y-3.7677
X5.6299Y-2.8307
X5.6299Y-3.8228
X5.6339Y-2.9173
X5.6339Y-3.1614
X5.6358Y-4.1772
X5.6378Y-2.7323
X5.6417Y-2.5236
X5.6437Y-4.2067
X5.6457Y-3.9528
X5.6496Y-3.9921
X5.6496Y-4.2421
X5.6654Y-2.7559
X5.6654Y-3.311
X5.6732Y-2.8071
X5.6732Y-3.9646
X5.6772Y-2.7008
X5.6772Y-2.8386
X5.6772Y-3.2087
X5.685Y-3.4134
X5.6871Y-4.0969
X5.6929Y-3.7913
X5.7008Y-3.0669
X5.7087Y-3.6811
X5.7087Y-3.7362
X5.7126Y-3.5472
X5.7126Y-4.2795
X5.7165Y-2.6063
X5.7205Y-3.1496
X5.7205Y-3.9764
X5.7205Y-4.0925
X5.7205Y-4.3268
X5.7244Y-4.185
X5.7402Y-2.9685
X5.7402Y-3.2756
X5.7441Y-3.3583
X5.752Y-4.0354
X5.7559Y-3.8465
X5.7677Y-2.7677
X5.7717Y-2.4764
X5.7717Y-3.189
X5.7795Y-3.748
X5.7874Y-3.5787
X5.7874Y-4.2087
X5.7913Y-3.063
X5.7913Y-3.4606
X5.7913Y-3.7953
X5.7913Y-4.0394
X5.7913Y-4.2953
X5.7992Y-2.5394
X5.8071Y-3.3031
X5.811Y-2.8937
X5.815Y-3.8937
X5.8189Y-3.1024
X5.8228Y-3.0315
X5.8228Y-3.7008
X5.8228Y-4.0039
X5.8346Y-2.6614
X5.8346Y-3.2362
X5.8386Y-3.7638
X5.8386Y-3.8228
X5.8386Y-3.9606
X5.8386Y-4.1299
X5.8465Y-4.3465
X5.8504Y-3.1732
X5.8701Y-2.815
X5.874Y-3.5118
X5.874Y-4.0984
X5.8819Y-3.0039
X5.8858Y-3.685
X5.8858Y-4.2244
X5.8898Y-3.374
X5.8898Y-3.752
X5.8898Y-4.1732
X5.8976Y-3.2677
X5.9094Y-2.5866
X5.9094Y-4.0591
X5.9134Y-2.9213
X5.9134Y-3.9213
X5.9173Y-3.8622
X5.9173Y-3.9803
X5.9252Y-3.1772
X5.9252Y-3.563
X5.9291Y-2.5079
X5.9291Y-2.7126
X5.9331Y-4.2795
X5.937Y-3.6969
X5.937Y-4.0118
X5.9409Y-3.0827
X5.9449Y-2.8228
X5.9528Y-2.626
X5.9528Y-3.8268
X5.9528Y-4.1181
X5.9567Y-4.3307
X5.9606Y-3.2126
X5.9606Y-3.8583
X5.9646Y-3.1417
X5.9646Y-3.4764
X5.9685Y-3.9291
X5.9724Y-2.9646
X5.9764Y-3.6732
X5.9843Y-2.7165
X5.9843Y-3.0551
X5.9843Y-3.7795
X5.9843Y-3.9921
X5.9882Y-3.315
X5.9882Y-3.8661
X6.0079Y-2.5157
X6.0079Y-3.9449
X6.0157Y-3.7638
X6.0157Y-3.8268
X6.0157Y-4.0354
X6.0197Y-2.8543
X6.0236Y-4.0984
X6.0315Y-3.3898
X6.0315Y-3.8819
X6.0354Y-4.2047
X6.0394Y-3.1142
X6.0433Y-2.4528
X6.0433Y-2.6102
X6.0433Y-3.0039
X6.0433Y-3.6772
X6.0472Y-3.2441
X6.0512Y-3.1772
X6.0512Y-4.2992
X6.0551Y-3.7874
X6.0551Y-3.8425
X6.0551Y-3.9488
X6.063Y-2.937
X6.0748Y-3.4488
X6.0906Y-2.7205
X6.0906Y-2.815
X6.0984Y-4.0315
X6.1024Y-3.0276
X6.1063Y-3.5079
X6.1142Y-2.8583
X6.1299Y-3.5787
X6.1339Y-2.9213
X6.1496Y-2.7717
X6.1614Y-3.1024
X6.1654Y-3.4331
X6.1693Y-3.2402
X6.1772Y-3.3425
X6.1811Y-3.7874
X6.189Y-3.1772
X6.1929Y-3.0118
X6.1929Y-3.9409
X6.1969Y-4.0118
X6.2008Y-2.4488
X6.2047Y-2.8937
X6.2087Y-3.8543
X6.2087Y-4.3071
X6.2244Y-3.5354
X6.2323Y-3.1811
X6.2402Y-2.7913
X6.2441Y-3.689
X6.2559Y-3.2992
X6.2598Y-2.874
X6.2638Y-3.0472
X6.2835Y-2.5315
X6.2953Y-2.8504
X6.3031Y-3.4291
X6.3071Y-3.878
X6.311Y-2.9843
X6.311Y-4.0551
X6.3189Y-3.3307
X6.3268Y-3.7756
X6.3307Y-2.6339
X6.3346Y-4.1732
X6.3425Y-3.1024
X6.3425Y-3.6102
X6.3425Y-3.6693
X6.3425Y-3.9685
X6.3465Y-2.748
X6.3504Y-2.8622
X6.3504Y-3.2362
X6.3504Y-3.8189
T2
X4.2677Y-3.6535
X4.3425Y-3.3937
X4.4055Y-3.6654
X4.6321Y-3.8315
X4.6936Y-3.9402
X4.7972Y-4.1465
T3
G00X4.0285Y-3.3732
M15
G01X3.997Y-3.3732
M16
G05
G00X4.0285Y-3.7134
M15
G01X3.997Y-3.7134
M16
G05
G00X4.1998Y-3.3732
M15
G01X4.1565Y-3.3732
M16
G05
G00X4.1998Y-3.7134
M15
G01X4.1565Y-3.7134
M16
G05
G00X6.0996Y-3.6488
M15
G01X6.1429Y-3.6488
M16
G05
G00X6.0996Y-3.989
M15
G01X6.1429Y-3.989
M16
G05
G00X6.2709Y-3.6488
M15
G01X6.3024Y-3.6488
M16
G05
G00X6.2709Y-3.989
M15
G01X6.3024Y-3.989
M16
G05
M30
