%TF.GenerationSoftware,KiCad,Pcbnew,8.0.6*%
%TF.CreationDate,2025-04-13T21:58:39+09:00*%
%TF.ProjectId,PdSinkInspector,50645369-6e6b-4496-9e73-706563746f72,rev?*%
%TF.SameCoordinates,Original*%
%TF.FileFunction,Paste,Top*%
%TF.FilePolarity,Positive*%
%FSLAX46Y46*%
G04 Gerber Fmt 4.6, Leading zero omitted, Abs format (unit mm)*
G04 Created by KiCad (PCBNEW 8.0.6) date 2025-04-13 21:58:39*
%MOMM*%
%LPD*%
G01*
G04 APERTURE LIST*
G04 Aperture macros list*
%AMRoundRect*
0 Rectangle with rounded corners*
0 $1 Rounding radius*
0 $2 $3 $4 $5 $6 $7 $8 $9 X,Y pos of 4 corners*
0 Add a 4 corners polygon primitive as box body*
4,1,4,$2,$3,$4,$5,$6,$7,$8,$9,$2,$3,0*
0 Add four circle primitives for the rounded corners*
1,1,$1+$1,$2,$3*
1,1,$1+$1,$4,$5*
1,1,$1+$1,$6,$7*
1,1,$1+$1,$8,$9*
0 Add four rect primitives between the rounded corners*
20,1,$1+$1,$2,$3,$4,$5,0*
20,1,$1+$1,$4,$5,$6,$7,0*
20,1,$1+$1,$6,$7,$8,$9,0*
20,1,$1+$1,$8,$9,$2,$3,0*%
G04 Aperture macros list end*
%ADD10R,0.800000X0.800000*%
%ADD11R,0.900000X0.240000*%
%ADD12R,0.240000X0.900000*%
%ADD13RoundRect,0.135000X0.135000X0.185000X-0.135000X0.185000X-0.135000X-0.185000X0.135000X-0.185000X0*%
%ADD14RoundRect,0.140000X0.140000X0.170000X-0.140000X0.170000X-0.140000X-0.170000X0.140000X-0.170000X0*%
%ADD15RoundRect,0.135000X-0.135000X-0.185000X0.135000X-0.185000X0.135000X0.185000X-0.135000X0.185000X0*%
%ADD16RoundRect,0.140000X-0.140000X-0.170000X0.140000X-0.170000X0.140000X0.170000X-0.140000X0.170000X0*%
%ADD17RoundRect,0.135000X0.185000X-0.135000X0.185000X0.135000X-0.185000X0.135000X-0.185000X-0.135000X0*%
%ADD18RoundRect,0.200000X-0.275000X0.200000X-0.275000X-0.200000X0.275000X-0.200000X0.275000X0.200000X0*%
%ADD19RoundRect,0.140000X-0.170000X0.140000X-0.170000X-0.140000X0.170000X-0.140000X0.170000X0.140000X0*%
%ADD20R,1.400000X1.200000*%
%ADD21RoundRect,0.150000X-0.650000X-0.150000X0.650000X-0.150000X0.650000X0.150000X-0.650000X0.150000X0*%
%ADD22R,0.850000X0.300000*%
%ADD23R,0.300000X0.850000*%
%ADD24R,2.600000X2.600000*%
%ADD25RoundRect,0.050000X0.387500X-0.050000X0.387500X0.050000X-0.387500X0.050000X-0.387500X-0.050000X0*%
%ADD26RoundRect,0.050000X0.050000X-0.387500X0.050000X0.387500X-0.050000X0.387500X-0.050000X-0.387500X0*%
%ADD27RoundRect,0.249999X0.395001X-0.395001X0.395001X0.395001X-0.395001X0.395001X-0.395001X-0.395001X0*%
%ADD28RoundRect,0.200000X0.200000X0.275000X-0.200000X0.275000X-0.200000X-0.275000X0.200000X-0.275000X0*%
%ADD29RoundRect,0.050000X0.250000X-0.100000X0.250000X0.100000X-0.250000X0.100000X-0.250000X-0.100000X0*%
%ADD30RoundRect,0.140000X0.170000X-0.140000X0.170000X0.140000X-0.170000X0.140000X-0.170000X-0.140000X0*%
%ADD31R,1.800000X1.400000*%
%ADD32R,1.240000X0.600000*%
%ADD33R,1.240000X0.300000*%
%ADD34RoundRect,0.050000X-0.250000X0.100000X-0.250000X-0.100000X0.250000X-0.100000X0.250000X0.100000X0*%
%ADD35RoundRect,0.218750X-0.381250X0.218750X-0.381250X-0.218750X0.381250X-0.218750X0.381250X0.218750X0*%
%ADD36RoundRect,0.250000X1.000000X0.650000X-1.000000X0.650000X-1.000000X-0.650000X1.000000X-0.650000X0*%
%ADD37RoundRect,0.218750X-0.218750X-0.256250X0.218750X-0.256250X0.218750X0.256250X-0.218750X0.256250X0*%
%ADD38RoundRect,0.120000X0.120000X0.285000X-0.120000X0.285000X-0.120000X-0.285000X0.120000X-0.285000X0*%
%ADD39RoundRect,0.062500X0.350000X0.062500X-0.350000X0.062500X-0.350000X-0.062500X0.350000X-0.062500X0*%
%ADD40RoundRect,0.150000X-0.587500X-0.150000X0.587500X-0.150000X0.587500X0.150000X-0.587500X0.150000X0*%
%ADD41RoundRect,0.150000X0.587500X0.150000X-0.587500X0.150000X-0.587500X-0.150000X0.587500X-0.150000X0*%
%ADD42RoundRect,0.135000X-0.185000X0.135000X-0.185000X-0.135000X0.185000X-0.135000X0.185000X0.135000X0*%
G04 APERTURE END LIST*
D10*
%TO.C,U4*%
X121900000Y-77600000D03*
X122850000Y-77600000D03*
X123800000Y-77600000D03*
D11*
X120550000Y-77850000D03*
D12*
X121100000Y-78900000D03*
X121600000Y-78900000D03*
X122100000Y-78900000D03*
X122600000Y-78900000D03*
X123100000Y-78900000D03*
X123600000Y-78900000D03*
X124100000Y-78900000D03*
X124600000Y-78900000D03*
D11*
X125150000Y-77850000D03*
X125150000Y-77350000D03*
D12*
X124600000Y-76300000D03*
X124100000Y-76300000D03*
X123600000Y-76300000D03*
X123100000Y-76300000D03*
X122600000Y-76300000D03*
X122100000Y-76300000D03*
X121600000Y-76300000D03*
X121100000Y-76300000D03*
D11*
X120550000Y-77350000D03*
%TD*%
D13*
%TO.C,R18*%
X119700000Y-75100000D03*
X118680000Y-75100000D03*
%TD*%
D14*
%TO.C,C23*%
X119260000Y-78200000D03*
X118300000Y-78200000D03*
%TD*%
%TO.C,C22*%
X119280000Y-77200000D03*
X118320000Y-77200000D03*
%TD*%
D15*
%TO.C,R13*%
X108290000Y-91500000D03*
X109310000Y-91500000D03*
%TD*%
D16*
%TO.C,C6*%
X129180000Y-105700000D03*
X128220000Y-105700000D03*
%TD*%
D17*
%TO.C,R15*%
X127250000Y-106880000D03*
X127250000Y-107900000D03*
%TD*%
D18*
%TO.C,R17*%
X133250000Y-103300000D03*
X133250000Y-101650000D03*
%TD*%
D16*
%TO.C,C9*%
X132440000Y-99300000D03*
X133400000Y-99300000D03*
%TD*%
D19*
%TO.C,C16*%
X138700000Y-104380000D03*
X138700000Y-103420000D03*
%TD*%
D13*
%TO.C,R6*%
X136510000Y-101650000D03*
X135490000Y-101650000D03*
%TD*%
D20*
%TO.C,Y2*%
X137200000Y-104750000D03*
X135000000Y-104750000D03*
X135000000Y-103050000D03*
X137200000Y-103050000D03*
%TD*%
D17*
%TO.C,R16*%
X126300000Y-106890000D03*
X126300000Y-107910000D03*
%TD*%
D19*
%TO.C,C8*%
X122950000Y-106280000D03*
X122950000Y-105320000D03*
%TD*%
D21*
%TO.C,U2*%
X117050000Y-101495000D03*
X117050000Y-102765000D03*
X117050000Y-104035000D03*
X117050000Y-105305000D03*
X109850000Y-105305000D03*
X109850000Y-104035000D03*
X109850000Y-102765000D03*
X109850000Y-101495000D03*
%TD*%
D19*
%TO.C,C1*%
X123950000Y-106280000D03*
X123950000Y-105320000D03*
%TD*%
D14*
%TO.C,C10*%
X119420000Y-101400000D03*
X120380000Y-101400000D03*
%TD*%
D16*
%TO.C,C15*%
X136580000Y-106100000D03*
X135620000Y-106100000D03*
%TD*%
D22*
%TO.C,IC2*%
X140600000Y-105500000D03*
X140600000Y-106000000D03*
X140600000Y-106500000D03*
X140600000Y-107000000D03*
X140600000Y-107500000D03*
X140600000Y-108000000D03*
D23*
X141300000Y-108700000D03*
X141800000Y-108700000D03*
X142300000Y-108700000D03*
X142800000Y-108700000D03*
X143300000Y-108700000D03*
X143800000Y-108700000D03*
D22*
X144500000Y-108000000D03*
X144500000Y-107500000D03*
X144500000Y-107000000D03*
X144500000Y-106500000D03*
X144500000Y-106000000D03*
X144500000Y-105500000D03*
D23*
X143800000Y-104800000D03*
X143300000Y-104800000D03*
X142800000Y-104800000D03*
X142300000Y-104800000D03*
X141800000Y-104800000D03*
X141300000Y-104800000D03*
D24*
X142550000Y-106750000D03*
%TD*%
D25*
%TO.C,U1*%
X123612500Y-103300000D03*
X123612500Y-102900000D03*
X123612500Y-102500000D03*
X123612500Y-102100000D03*
X123612500Y-101700000D03*
X123612500Y-101300000D03*
X123612500Y-100900000D03*
X123612500Y-100500000D03*
X123612500Y-100100000D03*
X123612500Y-99700000D03*
X123612500Y-99300000D03*
X123612500Y-98900000D03*
X123612500Y-98500000D03*
X123612500Y-98100000D03*
D26*
X124450000Y-97262500D03*
X124850000Y-97262500D03*
X125250000Y-97262500D03*
X125650000Y-97262500D03*
X126050000Y-97262500D03*
X126450000Y-97262500D03*
X126850000Y-97262500D03*
X127250000Y-97262500D03*
X127650000Y-97262500D03*
X128050000Y-97262500D03*
X128450000Y-97262500D03*
X128850000Y-97262500D03*
X129250000Y-97262500D03*
X129650000Y-97262500D03*
D25*
X130487500Y-98100000D03*
X130487500Y-98500000D03*
X130487500Y-98900000D03*
X130487500Y-99300000D03*
X130487500Y-99700000D03*
X130487500Y-100100000D03*
X130487500Y-100500000D03*
X130487500Y-100900000D03*
X130487500Y-101300000D03*
X130487500Y-101700000D03*
X130487500Y-102100000D03*
X130487500Y-102500000D03*
X130487500Y-102900000D03*
X130487500Y-103300000D03*
D26*
X129650000Y-104137500D03*
X129250000Y-104137500D03*
X128850000Y-104137500D03*
X128450000Y-104137500D03*
X128050000Y-104137500D03*
X127650000Y-104137500D03*
X127250000Y-104137500D03*
X126850000Y-104137500D03*
X126450000Y-104137500D03*
X126050000Y-104137500D03*
X125650000Y-104137500D03*
X125250000Y-104137500D03*
X124850000Y-104137500D03*
X124450000Y-104137500D03*
D27*
X127850000Y-99900000D03*
X126250000Y-99900000D03*
X127850000Y-101500000D03*
X126250000Y-101500000D03*
%TD*%
D15*
%TO.C,R4*%
X144510000Y-109900000D03*
X143490000Y-109900000D03*
%TD*%
%TO.C,R5*%
X108880000Y-100000000D03*
X109900000Y-100000000D03*
%TD*%
D14*
%TO.C,C12*%
X117050000Y-100000000D03*
X116090000Y-100000000D03*
%TD*%
D16*
%TO.C,C5*%
X133400000Y-100250000D03*
X132440000Y-100250000D03*
%TD*%
D14*
%TO.C,C13*%
X118161250Y-88168750D03*
X117201250Y-88168750D03*
%TD*%
D16*
%TO.C,C2*%
X129180000Y-96000000D03*
X128220000Y-96000000D03*
%TD*%
D28*
%TO.C,R3*%
X115425000Y-98700000D03*
X117075000Y-98700000D03*
%TD*%
D14*
%TO.C,C7*%
X121140000Y-96450000D03*
X122100000Y-96450000D03*
%TD*%
D15*
%TO.C,R12*%
X140510000Y-95800000D03*
X139490000Y-95800000D03*
%TD*%
D29*
%TO.C,D4*%
X111131250Y-88631250D03*
X111131250Y-87931250D03*
%TD*%
D30*
%TO.C,C19*%
X114018750Y-93431250D03*
X114018750Y-92471250D03*
%TD*%
D15*
%TO.C,R14*%
X108580000Y-88600000D03*
X109600000Y-88600000D03*
%TD*%
D31*
%TO.C,SW1*%
X101800000Y-96439165D03*
X106200000Y-96439165D03*
X106200000Y-98839165D03*
X101800000Y-98839165D03*
%TD*%
D32*
%TO.C,J3*%
X106725000Y-86800000D03*
X106725000Y-87600000D03*
D33*
X106725000Y-88750000D03*
X106725000Y-89750000D03*
X106725000Y-90250000D03*
X106725000Y-91250000D03*
D32*
X106725000Y-92400000D03*
X106725000Y-93200000D03*
X106725000Y-93200000D03*
X106725000Y-92400000D03*
D33*
X106725000Y-91750000D03*
X106725000Y-90750000D03*
X106725000Y-89250000D03*
X106725000Y-88250000D03*
D32*
X106725000Y-87600000D03*
X106725000Y-86800000D03*
%TD*%
D17*
%TO.C,R10*%
X144750000Y-102040000D03*
X144750000Y-103060000D03*
%TD*%
D30*
%TO.C,C18*%
X113068750Y-93451250D03*
X113068750Y-92491250D03*
%TD*%
D15*
%TO.C,R1*%
X112296250Y-88831250D03*
X113316250Y-88831250D03*
%TD*%
D16*
%TO.C,C14*%
X115721250Y-89268750D03*
X116681250Y-89268750D03*
%TD*%
D13*
%TO.C,R8*%
X114930000Y-97400000D03*
X115950000Y-97400000D03*
%TD*%
D14*
%TO.C,C11*%
X121050000Y-98600000D03*
X122010000Y-98600000D03*
%TD*%
D34*
%TO.C,D5*%
X111131250Y-89681250D03*
X111131250Y-90381250D03*
%TD*%
D35*
%TO.C,L1*%
X120301250Y-91206250D03*
X120301250Y-93331250D03*
%TD*%
D30*
%TO.C,C17*%
X107900000Y-97980000D03*
X107900000Y-97020000D03*
%TD*%
D31*
%TO.C,SW2*%
X102000000Y-83200000D03*
X106400000Y-83200000D03*
X106400000Y-80800000D03*
X102000000Y-80800000D03*
%TD*%
D14*
%TO.C,C4*%
X121120000Y-97400000D03*
X122080000Y-97400000D03*
%TD*%
D36*
%TO.C,D2*%
X117566250Y-84250000D03*
X113566250Y-84250000D03*
%TD*%
D37*
%TO.C,D1*%
X112712500Y-81700000D03*
X114287500Y-81700000D03*
%TD*%
D29*
%TO.C,D3*%
X111000000Y-84750000D03*
X111000000Y-84050000D03*
%TD*%
D38*
%TO.C,U3*%
X117001250Y-92168750D03*
X117001250Y-91168750D03*
X116401250Y-92168750D03*
X116401250Y-91168750D03*
D39*
X117913750Y-92668750D03*
X117913750Y-92168750D03*
X117913750Y-91668750D03*
X117913750Y-91168750D03*
X117913750Y-90668750D03*
X115488750Y-90668750D03*
X115488750Y-91168750D03*
X115488750Y-91668750D03*
X115488750Y-92168750D03*
X115488750Y-92668750D03*
%TD*%
D32*
%TO.C,J1*%
X154880000Y-100200000D03*
X154880000Y-99400000D03*
D33*
X154880000Y-98750000D03*
X154880000Y-97750000D03*
X154880000Y-96250000D03*
X154880000Y-95250000D03*
D32*
X154880000Y-94600000D03*
X154880000Y-93800000D03*
X154880000Y-93800000D03*
X154880000Y-94600000D03*
D33*
X154880000Y-95750000D03*
X154880000Y-96750000D03*
X154880000Y-97250000D03*
X154880000Y-98250000D03*
D32*
X154880000Y-99400000D03*
X154880000Y-100200000D03*
%TD*%
D40*
%TO.C,Q3*%
X140525000Y-98000000D03*
X138650000Y-98950000D03*
X138650000Y-97050000D03*
%TD*%
D30*
%TO.C,C20*%
X143700000Y-102140000D03*
X143700000Y-103100000D03*
%TD*%
D15*
%TO.C,R2*%
X112296250Y-89831250D03*
X113316250Y-89831250D03*
%TD*%
D41*
%TO.C,Q2*%
X142600000Y-99000000D03*
X144475000Y-98050000D03*
X144475000Y-99950000D03*
%TD*%
D13*
%TO.C,R7*%
X116520000Y-81700000D03*
X115500000Y-81700000D03*
%TD*%
D15*
%TO.C,R9*%
X147000000Y-101200000D03*
X145980000Y-101200000D03*
%TD*%
D30*
%TO.C,C3*%
X124250000Y-95000000D03*
X124250000Y-95960000D03*
%TD*%
D40*
%TO.C,Q1*%
X149300000Y-98900000D03*
X147425000Y-99850000D03*
X147425000Y-97950000D03*
%TD*%
D30*
%TO.C,C21*%
X141100000Y-102140000D03*
X141100000Y-103100000D03*
%TD*%
D42*
%TO.C,R11*%
X137100000Y-98060000D03*
X137100000Y-97040000D03*
%TD*%
M02*
